<svg version="1.1" id="Layer_1" xmlns="http://www.w3.org/2000/svg" xmlns:xlink="http://www.w3.org/1999/xlink" x="0px" y="0px" width="100%" viewBox="0 0 1024 1024" enable-background="new 0 0 1024 1024" xml:space="preserve">
  <path fill="#0000" opacity="1.000000" stroke="none" d="
M706.000000,1025.000000 
	C470.666656,1025.000000 235.833328,1025.000000 1.000000,1025.000000 
	C1.000000,683.666687 1.000000,342.333344 1.000000,1.000000 
	C342.333344,1.000000 683.666687,1.000000 1025.000000,1.000000 
	C1025.000000,342.333344 1025.000000,683.666687 1025.000000,1025.000000 
	C918.833313,1025.000000 812.666687,1025.000000 706.000000,1025.000000 
M337.000092,703.347473 
	C336.670074,704.399414 336.054688,705.450623 336.052032,706.503418 
	C335.994598,729.731140 335.980286,752.959229 336.069824,776.186768 
	C336.074707,777.451599 337.055603,778.712646 337.799866,780.848938 
	C337.727051,784.272156 337.654205,787.695374 337.026459,791.387817 
	C337.248901,791.980957 337.471344,792.574036 337.871216,793.771362 
	C336.297211,797.509033 334.723175,801.246765 333.303802,804.617249 
	C356.850739,804.617249 380.245880,804.617249 403.534424,804.617249 
	C403.534424,794.241211 403.534424,784.601196 403.534424,774.977356 
	C399.162964,777.692078 395.306366,781.854065 390.994080,782.397095 
	C382.025543,783.526428 372.815613,782.738464 363.422211,782.738464 
	C363.338623,781.583801 363.231598,780.792480 363.231171,780.001221 
	C363.213593,745.532776 363.170135,711.064148 363.279205,676.596069 
	C363.286133,674.402954 364.485962,672.213623 365.792114,669.766907 
	C366.112946,668.688049 366.433777,667.609131 366.883240,665.781616 
	C367.161957,664.887817 367.440674,663.994080 367.685638,663.208496 
	C356.103577,663.208496 344.761536,663.208496 333.295288,663.208496 
	C335.013855,667.637268 337.633362,671.550354 337.883575,675.609558 
	C338.444458,684.708496 337.827179,693.880127 337.000092,703.347473 
M464.770874,781.707275 
	C464.510895,781.821106 464.250916,781.934937 463.070709,782.233582 
	C454.464508,782.233582 445.858276,782.233582 436.893036,782.233582 
	C436.893036,780.089050 436.895050,778.458191 436.892761,776.827332 
	C436.855469,750.331055 436.596619,723.832336 436.881012,697.339539 
	C437.007172,685.586914 434.035431,673.294128 442.186829,662.500977 
	C429.881958,662.500977 418.393738,662.500977 405.772980,662.500977 
	C413.070251,671.895508 411.109406,682.102356 411.144501,691.965759 
	C411.237640,718.128296 411.304779,744.292358 411.117920,770.453918 
	C411.037201,781.755798 413.523712,793.513123 405.564056,803.852844 
	C430.117554,803.852844 453.830811,803.852844 477.296448,803.852844 
	C477.296448,794.052979 477.296448,784.638367 477.296448,774.995728 
	C472.936646,777.466248 468.965271,779.716675 464.770874,781.707275 
M856.720154,667.142273 
	C851.545654,666.780457 846.374756,666.294128 841.194153,666.147400 
	C839.951538,666.112183 838.676880,667.205750 837.416931,667.780090 
	C838.234131,669.190674 839.051270,670.601318 840.223877,672.557495 
	C840.511719,673.363342 840.799561,674.169128 840.639526,675.531433 
	C840.773499,677.660950 841.023438,679.790466 841.024353,681.920044 
	C841.041992,722.353577 841.030334,762.787048 840.885803,803.893677 
	C839.835327,805.874695 838.784790,807.855652 837.397339,810.472107 
	C862.371399,811.448730 886.513123,812.392822 910.693359,813.338440 
	C910.693359,803.416992 910.693359,794.327698 910.693359,784.661011 
	C908.782898,785.792603 907.298279,786.741211 905.750671,787.572510 
	C903.431274,788.818481 901.068970,791.000854 898.722412,791.004150 
	C888.636658,791.018311 878.550049,790.381836 868.520935,789.984680 
	C868.520935,776.563477 868.520935,763.641052 868.520935,750.400513 
	C878.484253,750.889404 888.467896,749.386169 896.929138,757.270020 
	C896.929138,745.621704 896.929138,735.087463 896.929138,723.517578 
	C887.985901,731.411438 878.216125,727.523682 868.800415,728.085754 
	C868.800415,715.283203 868.800415,703.053894 868.800415,690.450989 
	C882.981262,692.255432 897.842896,687.676575 910.480957,698.184387 
	C910.480957,688.689209 910.480957,679.467407 910.480957,669.964233 
	C892.577576,669.262085 874.791931,668.564514 856.720154,667.142273 
M443.803955,549.099731 
	C443.788269,546.433655 443.348724,543.688110 443.831024,541.115417 
	C445.813171,530.542542 441.109711,525.072327 432.029602,519.428162 
	C354.825378,471.437744 334.759460,374.660797 386.601837,302.286957 
	C387.198395,301.454193 387.524902,300.427979 387.977478,299.492035 
	C386.377045,299.839325 385.367310,300.595703 384.551361,301.522644 
	C340.462158,351.609161 327.578705,423.606201 355.884338,483.864838 
	C373.683472,521.756592 401.364960,549.944702 439.113434,568.137390 
	C440.532013,568.821045 442.329559,568.718384 444.226654,568.790771 
	C444.427948,568.468445 444.338593,568.210938 443.765045,567.140930 
	C443.842163,564.751099 443.919250,562.361328 444.522675,559.376709 
	C444.346100,556.259094 444.169556,553.141418 443.803955,549.099731 
M637.884705,298.290802 
	C637.422791,298.282196 636.960815,298.273621 636.498901,298.265045 
	C636.786804,298.717804 637.074768,299.170563 637.699951,300.203064 
	C637.987671,300.611084 638.262024,301.029297 638.564941,301.425720 
	C677.517456,352.405487 678.029846,425.006226 640.061829,476.635925 
	C625.502686,496.433838 607.413208,512.028442 586.259338,524.302856 
	C584.609070,525.260437 582.382324,527.161743 582.349243,528.666748 
	C582.046997,542.419434 582.171570,556.181458 582.171570,570.519592 
	C584.263916,569.646240 585.790039,569.090820 587.245483,568.389160 
	C603.714050,560.450134 618.879517,550.509277 631.809509,537.566284 
	C677.713196,491.616486 695.452698,437.099884 679.811035,373.329498 
	C672.837891,344.900238 658.486877,320.045380 637.884705,298.290802 
M205.428574,701.938599 
	C205.329559,706.281128 205.230545,710.623596 204.702835,715.292480 
	C204.843719,715.872009 204.984604,716.451538 205.379059,717.934692 
	C205.392746,726.392334 205.447495,734.850098 205.411758,743.307495 
	C205.331955,762.198181 205.207031,781.088623 204.813705,800.157532 
	C204.539169,800.423340 204.559448,800.696655 204.816345,801.699341 
	C203.503967,804.422180 202.191574,807.144958 201.066513,809.479126 
	C212.762848,809.479126 224.000961,809.479126 236.691101,809.479126 
	C230.323059,801.647156 230.502899,793.681152 230.774063,785.683838 
	C230.864304,783.022095 231.099915,780.315308 230.751755,777.697937 
	C229.545395,768.628662 232.630508,761.113464 238.878372,754.434570 
	C239.290878,755.259094 239.801910,756.077454 240.128143,756.963806 
	C243.748245,766.798706 247.034851,776.770386 251.039444,786.445190 
	C254.023209,793.653687 255.875412,800.454834 250.714142,807.369995 
	C250.622681,807.492493 250.930084,807.912659 250.727890,807.443909 
	C263.296082,807.443909 275.521545,807.443909 288.232574,807.443909 
	C285.511993,801.758301 283.019531,797.101074 281.005798,792.245300 
	C272.403992,771.503296 263.859680,750.736084 255.561951,729.871643 
	C254.736755,727.796692 254.989853,724.632812 255.998795,722.596924 
	C261.981140,710.525452 268.324738,698.632751 274.566223,686.690063 
	C278.359131,679.432434 282.186890,672.193054 285.767883,665.384888 
	C274.097534,665.384888 262.544739,665.384888 250.288406,665.384888 
	C251.673080,668.252380 252.810715,670.106323 253.458435,672.118103 
	C253.926117,673.570679 254.361603,675.543091 253.754944,676.754639 
	C246.339233,691.564575 238.728058,706.276733 230.494019,722.326965 
	C230.494019,711.762268 230.672974,702.524658 230.443909,693.297119 
	C230.212906,683.992065 229.773773,674.726868 235.149368,666.774658 
	C223.480362,666.774658 212.380615,666.774658 200.247314,666.774658 
	C204.501511,674.614014 206.854172,681.927246 204.608475,690.516968 
	C204.794159,694.027222 204.979843,697.537537 205.428574,701.938599 
M775.674561,780.062195 
	C775.680786,776.732483 775.684631,773.402832 775.693604,770.073120 
	C775.760803,745.100830 775.819214,720.128418 775.904602,695.156189 
	C775.923096,689.742676 777.726807,687.950867 782.951721,688.020203 
	C787.113220,688.075378 791.276428,688.106995 795.435120,688.255371 
	C800.915344,688.450928 803.476746,690.892273 803.086304,696.215942 
	C802.532776,703.764526 801.542053,711.281128 800.768738,718.524902 
	C809.540222,716.202087 819.150696,713.657043 829.100708,711.022034 
	C829.100708,703.932678 828.448486,696.887329 829.267578,690.017334 
	C830.266418,681.639893 827.591370,675.526733 820.759155,671.024963 
	C818.385315,669.460754 815.863098,667.109070 813.317261,666.984436 
	C797.691589,666.219727 782.040833,665.931458 766.395264,665.663330 
	C764.591919,665.632324 762.389893,666.241516 761.027771,667.355164 
	C757.045532,670.611084 753.394775,674.272400 748.905701,678.336914 
	C748.605469,679.927429 748.045410,681.517639 748.043091,683.108582 
	C747.992615,718.404358 747.986145,753.700317 748.057556,788.995972 
	C748.060974,790.694824 748.854919,792.392090 749.673889,794.587524 
	C752.760559,797.836731 755.981750,800.970825 758.892639,804.370483 
	C761.353455,807.244568 764.196899,808.269714 767.972534,808.310242 
	C779.291199,808.431824 790.683960,808.236389 801.898682,809.494019 
	C811.868652,810.612122 819.884277,808.510559 825.899414,800.441284 
	C827.435303,798.380737 829.003906,795.720215 829.070801,793.294434 
	C829.400940,781.314636 829.233459,769.320984 829.238037,757.332275 
	C829.241211,749.052368 829.238647,740.772461 829.238647,731.668701 
	C815.812622,731.668701 802.930298,731.668701 789.781067,731.668701 
	C789.781067,739.777405 789.781067,748.185059 789.781067,756.233643 
	C794.070190,755.457520 798.297668,754.692505 803.067383,753.829468 
	C803.067383,763.787109 803.417542,772.606506 802.782654,781.354553 
	C802.650085,783.182007 799.056580,785.819336 796.749573,786.196533 
	C792.558105,786.881714 788.130371,785.962280 783.810181,786.070129 
	C780.332275,786.156860 777.684204,785.208252 776.326660,781.727234 
	C776.178162,781.477112 776.029602,781.226929 775.674561,780.062195 
M603.051086,662.421631 
	C597.889648,662.391602 592.650879,662.916809 587.583740,662.210388 
	C578.400513,660.930054 571.674988,664.373901 565.764587,671.064209 
	C563.381897,673.761475 562.223694,676.211609 562.234863,679.827820 
	C562.335571,712.462219 562.813416,745.112854 561.904724,777.723206 
	C561.600037,788.659790 564.888306,796.201111 573.424072,802.041870 
	C574.945801,803.083130 576.914062,804.010193 578.696167,804.048035 
	C594.176514,804.377197 609.661255,804.535339 625.145264,804.605896 
	C626.831787,804.613586 628.954834,804.237122 630.133606,803.197754 
	C634.485291,799.360107 638.525391,795.169067 643.319031,790.525146 
	C643.545959,789.407959 643.970154,788.290894 643.971252,787.173523 
	C644.007935,751.254395 644.022949,715.335205 643.935059,679.416321 
	C643.931580,677.984924 642.892090,676.556030 641.862549,674.731934 
	C637.662170,670.705933 633.461731,666.679932 628.690979,661.936401 
	C623.307373,661.622986 617.925720,661.126038 612.539429,661.070557 
	C609.681335,661.041016 606.815369,661.777649 603.051086,662.421631 
M736.155518,676.569519 
	C733.389038,673.936646 730.466980,671.445984 727.895874,668.634460 
	C724.744873,665.188904 721.098938,664.090820 716.427246,664.072571 
	C698.431946,664.002258 680.438477,663.497620 662.443970,663.172546 
	C659.693970,663.122864 656.942322,663.165588 654.302612,663.165588 
	C655.662598,668.094055 657.431091,672.603271 658.047241,677.264771 
	C658.674866,682.013245 658.167236,686.911560 658.159180,691.744263 
	C658.112976,719.574280 658.158936,747.404907 657.973450,775.234009 
	C657.906189,785.318726 660.460144,795.935120 651.363831,805.363647 
	C664.742554,805.363647 676.458130,805.363647 688.973877,805.363647 
	C682.104553,796.765442 683.867981,786.897949 683.755249,777.358582 
	C683.641724,767.755737 683.730286,758.150452 683.730286,748.230957 
	C685.674194,748.230957 687.004395,748.409607 688.270142,748.199829 
	C693.592346,747.317627 696.214783,749.390808 697.601807,754.762268 
	C700.054077,764.259705 703.245850,773.570557 706.257141,782.917908 
	C708.729370,790.591675 712.451050,798.202637 704.563477,806.676636 
	C718.419983,806.676636 730.560181,806.676636 741.421753,806.676636 
	C734.933655,787.529114 728.286499,767.911926 721.717957,748.526978 
	C726.980835,743.807495 731.809937,739.477051 737.282166,734.553101 
	C737.513977,733.775208 737.946106,732.997742 737.948059,732.219299 
	C737.991333,714.980774 738.015198,697.742004 737.927551,680.503845 
	C737.921814,679.368103 736.995300,678.237061 736.155518,676.569519 
M521.334229,229.009995 
	C561.297424,231.006714 597.701904,243.623413 628.634644,268.871063 
	C683.375000,313.550812 707.809814,371.767792 700.792114,442.254089 
	C696.676636,483.590698 678.831360,519.049438 650.381897,549.158875 
	C629.521484,571.236450 604.513550,586.973999 575.908386,597.098877 
	C574.362610,597.646057 572.135254,598.812744 571.872620,600.042725 
	C569.470947,611.291748 561.592468,614.265991 551.458984,614.336487 
	C549.940857,614.346985 548.040100,614.730774 546.978821,615.681335 
	C541.643311,620.460388 536.527832,625.485046 532.223328,629.578674 
	C639.368469,623.232483 734.325439,528.821167 725.878723,404.918579 
	C718.043213,289.983185 619.532959,199.985855 502.878296,205.449509 
	C382.721405,211.077240 292.137695,315.603180 299.959412,433.901764 
	C307.538208,548.525391 403.620789,625.683838 494.740936,629.458374 
	C491.609070,627.258850 487.702301,625.678101 485.578064,622.787354 
	C480.775879,616.252380 474.806976,613.585999 466.827240,613.155212 
	C459.999664,612.786621 455.820343,608.420410 454.632629,601.309937 
	C454.401825,599.928101 452.396790,598.367493 450.863098,597.746643 
	C377.476135,568.036682 332.767456,515.741821 324.899719,435.545471 
	C319.828705,383.856171 334.800903,337.635925 368.039490,297.742523 
	C407.592224,250.270798 458.675934,227.722595 521.334229,229.009995 
M620.512939,432.002563 
	C631.423706,410.027100 635.414062,386.797943 631.761475,362.595276 
	C619.332458,280.238831 531.228516,235.197342 457.306213,273.689545 
	C379.712006,314.093719 369.449341,422.771118 441.597992,473.323608 
	C449.729523,479.021088 453.612091,486.197113 453.324738,496.081299 
	C453.131592,502.724426 453.219910,509.443146 453.997559,516.031799 
	C455.265411,526.772888 463.205536,534.008240 473.856842,534.096863 
	C499.846802,534.313232 525.840454,534.351868 551.830444,534.163879 
	C562.661804,534.085571 570.447876,527.263367 572.091248,516.453186 
	C572.984863,510.574677 573.082397,504.485382 572.767578,498.531952 
	C572.153809,486.927917 576.687195,478.484619 586.291687,471.980133 
	C601.060303,461.978363 612.170593,448.611115 620.512939,432.002563 
M125.265068,739.289917 
	C133.636032,744.103333 142.029724,748.877808 150.369751,753.744263 
	C155.669342,756.836609 162.881607,758.907043 165.586212,763.558167 
	C168.306473,768.236267 166.569534,775.541992 166.668503,781.698181 
	C166.760910,787.446228 164.916855,789.329102 159.046021,789.686157 
	C154.887650,789.939148 150.727051,790.177979 146.563965,790.324341 
	C142.214172,790.477234 139.823944,788.192444 139.621552,783.916992 
	C139.254517,776.163940 138.882553,768.415771 143.802185,760.597351 
	C132.642349,763.835999 122.684349,766.725891 113.804428,769.302856 
	C114.067390,779.025024 114.393082,787.932617 114.524055,796.843018 
	C114.640892,804.791382 123.490211,813.455811 131.408051,813.160645 
	C142.731461,812.738464 154.082062,811.627502 165.369537,812.084167 
	C175.393799,812.489868 182.949326,809.520081 189.039032,801.575806 
	C191.080109,798.913147 192.360504,796.615784 192.317169,793.200562 
	C192.150085,780.037048 192.101944,766.867188 192.355743,753.706360 
	C192.429245,749.895081 191.337189,747.739685 187.942963,745.854248 
	C173.100433,737.609375 158.448517,729.022034 143.667465,720.665039 
	C141.073410,719.198547 139.856384,717.464905 139.999222,714.366699 
	C140.236877,709.211914 139.994263,704.036865 140.047684,698.871277 
	C140.092667,694.522156 142.307068,692.127930 146.724976,691.966064 
	C150.888336,691.813477 155.053024,691.694092 159.217743,691.582764 
	C164.470261,691.442261 166.673309,693.328064 166.327972,698.662048 
	C165.851837,706.015869 164.831543,713.334473 164.081741,720.319702 
	C172.781052,717.241394 182.160980,713.922241 191.654770,710.562805 
	C191.654770,703.584229 191.004883,696.685181 191.823730,689.965027 
	C192.788452,682.047791 190.011841,676.809509 183.731323,672.316284 
	C180.447632,669.967041 177.587524,668.487549 173.408539,668.758850 
	C162.437271,669.471252 151.412796,670.304504 140.450027,669.923462 
	C130.895538,669.591370 123.127289,671.821167 117.825943,680.021240 
	C116.320099,682.350464 114.782539,685.176819 114.701271,687.819458 
	C114.358253,698.974548 115.326683,710.216003 114.321915,721.290344 
	C113.501785,730.329651 116.433479,735.826416 125.265068,739.289917 
M541.025391,683.922974 
	C545.330933,685.770264 549.636475,687.617493 553.796875,689.402466 
	C553.796875,680.573364 553.796875,671.636475 553.796875,662.449707 
	C529.484497,662.449707 505.439331,662.449707 481.469788,662.449707 
	C482.854950,667.249268 485.335846,671.941162 485.390167,676.661011 
	C485.771667,709.806274 485.654205,742.957336 485.693207,776.106506 
	C485.704407,785.617676 487.383331,795.439758 479.565643,803.720337 
	C492.241852,803.720337 503.898163,803.720337 516.485535,803.720337 
	C510.568695,795.974426 511.174072,787.601929 511.237457,779.283691 
	C511.322510,768.123413 511.221802,756.961914 511.231659,745.800903 
	C511.232788,744.541687 511.432922,743.282532 511.548737,741.930115 
	C521.452209,742.173401 531.295410,740.307495 539.913757,747.565002 
	C539.913757,736.005798 539.913757,725.341309 539.913757,713.656555 
	C531.074951,721.491638 521.200012,719.686218 511.450958,719.427490 
	C511.450958,707.455200 511.450958,695.865356 511.450958,683.920349 
	C521.200256,683.920349 530.658936,683.920349 541.025391,683.922974 
M508.499512,602.245789 
	C523.993286,602.209778 539.488037,602.070068 554.980347,602.203308 
	C559.399414,602.241272 561.320923,600.912537 561.146912,596.196777 
	C560.858398,588.377930 561.108093,580.539551 561.115967,572.709412 
	C561.125183,563.602417 561.118103,554.495422 561.118103,545.233643 
	C529.052795,545.233643 497.506744,545.233643 465.912231,545.233643 
	C465.912231,549.622864 465.912231,553.680115 465.912231,558.057983 
	C494.628448,560.353027 523.010376,562.621277 551.392212,564.889587 
	C551.372009,565.369812 551.351807,565.850098 551.331543,566.330322 
	C522.909790,566.841736 494.488098,567.353149 465.801880,567.869324 
	C465.801880,572.136841 465.801880,576.033386 465.801880,580.264648 
	C492.061432,582.353699 518.020752,584.418884 543.980164,586.484009 
	C543.945984,587.202820 543.911804,587.921570 543.877625,588.640381 
	C517.809570,588.640381 491.741577,588.640381 465.261627,588.640381 
	C465.261627,591.856812 465.430481,594.009277 465.226318,596.125732 
	C464.804901,600.494690 466.194916,602.318298 471.017578,602.203247 
	C483.170990,601.913391 495.337952,602.190796 508.499512,602.245789 
M295.141296,775.639282 
	C294.615936,785.916870 297.508179,796.672485 290.395538,805.660706 
	C302.518707,805.660706 314.139160,805.660706 327.087585,805.660706 
	C320.516785,798.142700 320.925171,790.326416 320.966797,782.450378 
	C321.106781,755.976257 320.728729,729.496216 321.144623,703.027832 
	C321.350891,689.900452 318.253021,676.375977 325.098145,664.051270 
	C313.370117,664.051270 302.169159,664.051270 290.762207,664.051270 
	C292.363434,669.085754 294.897095,673.418640 294.943604,677.778015 
	C295.288147,710.077087 295.138031,742.381409 295.141296,775.639282 
M525.397461,612.127380 
	C514.353516,612.127380 503.309509,612.127380 491.779388,612.127380 
	C504.493439,625.023132 525.735474,622.464783 534.447876,612.116699 
	C531.570068,612.116699 528.962341,612.116699 525.397461,612.127380 
z"/>
  <path fill="#F9C650" opacity="1.000000" stroke="none" d="
M520.851562,229.002045 
	C458.675934,227.722595 407.592224,250.270798 368.039490,297.742523 
	C334.800903,337.635925 319.828705,383.856171 324.899719,435.545471 
	C332.767456,515.741821 377.476135,568.036682 450.863098,597.746643 
	C452.396790,598.367493 454.401825,599.928101 454.632629,601.309937 
	C455.820343,608.420410 459.999664,612.786621 466.827240,613.155212 
	C474.806976,613.585999 480.775879,616.252380 485.578064,622.787354 
	C487.702301,625.678101 491.609070,627.258850 494.740936,629.458374 
	C403.620789,625.683838 307.538208,548.525391 299.959412,433.901764 
	C292.137695,315.603180 382.721405,211.077240 502.878296,205.449509 
	C619.532959,199.985855 718.043213,289.983185 725.878723,404.918579 
	C734.325439,528.821167 639.368469,623.232483 532.223328,629.578674 
	C536.527832,625.485046 541.643311,620.460388 546.978821,615.681335 
	C548.040100,614.730774 549.940857,614.346985 551.458984,614.336487 
	C561.592468,614.265991 569.470947,611.291748 571.872620,600.042725 
	C572.135254,598.812744 574.362610,597.646057 575.908386,597.098877 
	C604.513550,586.973999 629.521484,571.236450 650.381897,549.158875 
	C678.831360,519.049438 696.676636,483.590698 700.792114,442.254089 
	C707.809814,371.767792 683.375000,313.550812 628.634644,268.871063 
	C597.701904,243.623413 561.297424,231.006714 520.851562,229.002045 
z"/>
  <path fill="#F7C650" opacity="1.000000" stroke="none" d="
M620.328857,432.326904 
	C612.170593,448.611115 601.060303,461.978363 586.291687,471.980133 
	C576.687195,478.484619 572.153809,486.927917 572.767578,498.531952 
	C573.082397,504.485382 572.984863,510.574677 572.091248,516.453186 
	C570.447876,527.263367 562.661804,534.085571 551.830444,534.163879 
	C525.840454,534.351868 499.846802,534.313232 473.856842,534.096863 
	C463.205536,534.008240 455.265411,526.772888 453.997559,516.031799 
	C453.219910,509.443146 453.131592,502.724426 453.324738,496.081299 
	C453.612091,486.197113 449.729523,479.021088 441.597992,473.323608 
	C369.449341,422.771118 379.712006,314.093719 457.306213,273.689545 
	C531.228516,235.197342 619.332458,280.238831 631.761475,362.595276 
	C635.414062,386.797943 631.423706,410.027100 620.328857,432.326904 
M605.551208,431.735321 
	C605.799072,431.184418 606.046875,430.633514 606.762268,429.738007 
	C607.218079,428.683502 607.673828,427.628998 608.671875,426.089020 
	C608.954346,425.421783 609.236816,424.754547 609.833984,423.775757 
	C609.932617,423.350128 610.031311,422.924500 610.625427,422.018127 
	C610.822632,421.365845 611.019836,420.713562 611.707214,419.557770 
	C623.278870,391.576416 622.771179,363.593170 610.503723,336.131866 
	C591.968140,294.638947 552.354492,270.802277 506.780609,272.936829 
	C462.821594,274.995758 423.892303,305.777710 410.954865,347.740448 
	C397.298004,392.036499 413.120117,438.538025 449.617371,462.987091 
	C461.244843,470.776184 466.718781,481.690155 466.532776,495.578461 
	C466.459137,501.075684 466.261139,506.575928 466.373413,512.069641 
	C466.479156,517.244080 469.769714,521.578674 473.955353,521.786804 
	C479.568604,522.065979 485.206146,521.856018 490.824036,521.856018 
	C491.491943,513.004089 492.103729,504.895599 492.730988,496.582031 
	C491.378204,496.180328 490.027527,495.779236 488.869232,495.435303 
	C488.869232,493.117584 488.778839,491.116150 488.894806,489.126770 
	C489.009155,487.165314 488.679230,484.004395 489.675171,483.467407 
	C494.440399,480.898376 492.847229,476.831451 492.396118,473.352875 
	C491.805328,468.796997 490.361603,464.351746 489.239166,459.116150 
	C488.560547,457.043915 487.881897,454.971649 487.169159,452.134308 
	C486.132965,449.718445 485.096802,447.302551 484.067505,444.253113 
	C484.056366,443.834991 484.045227,443.416840 484.133057,442.300262 
	C483.773102,441.199371 483.413147,440.098480 483.059723,438.340515 
	C482.740997,437.550323 482.422272,436.760101 481.972290,435.435852 
	C481.657288,435.261139 481.342255,435.086456 481.062195,434.975342 
	C481.062195,434.975342 481.113922,434.924438 481.092896,434.137238 
	C481.066711,433.089020 481.040527,432.040771 481.710236,430.967102 
	C483.122314,430.333221 484.534393,429.699341 486.185760,429.108185 
	C486.185760,429.108185 486.428802,429.112701 486.561401,429.790771 
	C486.872284,430.883667 487.183167,431.976532 487.618286,433.591583 
	C487.698914,433.751282 487.779541,433.911011 487.841675,434.745941 
	C487.965302,435.176849 488.088928,435.607788 488.282196,436.758728 
	C489.030396,439.545807 489.778595,442.332886 490.615601,445.802063 
	C490.897736,446.903168 491.179901,448.004242 491.533905,449.621307 
	C491.626556,449.768158 491.719208,449.915009 491.789581,450.733765 
	C491.916840,451.161438 492.044098,451.589081 492.177155,452.807739 
	C492.942566,455.890991 493.707947,458.974274 494.378387,462.880463 
	C495.025574,469.325592 495.672760,475.770752 496.319946,482.215881 
	C496.813812,482.254730 497.307709,482.293579 497.801605,482.332397 
	C498.586761,477.298035 499.371918,472.263641 501.056274,467.031494 
	C508.991455,467.036987 516.926636,467.042450 525.103760,467.796936 
	C526.200684,472.572510 527.297546,477.348083 528.394470,482.123688 
	C528.827393,482.077362 529.260315,482.031067 529.693237,481.984772 
	C530.256409,475.524261 530.819580,469.063751 531.809204,462.043182 
	C532.726746,457.622437 533.644226,453.201691 534.851746,448.172455 
	C535.363037,445.705170 535.874329,443.237915 536.802795,440.193817 
	C537.403259,437.767761 538.003723,435.341705 538.908508,432.324432 
	C539.455322,430.253510 540.002136,428.182617 540.847473,425.590363 
	C541.151428,424.673279 541.455383,423.756195 542.373169,423.163696 
	C544.383728,425.020630 546.297485,425.149597 548.481201,422.961090 
	C548.481201,422.961090 548.897766,423.033600 548.837891,423.660065 
	C548.567627,424.443451 548.297302,425.226837 547.673584,426.591888 
	C547.341736,427.669800 547.009949,428.747681 546.208069,430.376678 
	C545.649658,432.192902 545.091187,434.009125 544.146973,436.331696 
	C543.960205,437.159027 543.773376,437.986328 543.173706,439.307983 
	C542.984009,440.145782 542.794312,440.983582 542.151978,442.383881 
	C542.069458,443.577148 541.987000,444.770386 541.278442,446.310883 
	C540.671082,448.141388 540.063721,449.971893 539.137939,452.431580 
	C538.697693,454.281830 538.257385,456.132050 537.392456,458.567322 
	C536.889771,460.697144 536.387085,462.826935 535.446106,465.588715 
	C534.839722,470.020386 534.119141,474.441528 533.708984,478.891296 
	C533.609192,479.973907 534.229065,481.466675 535.031921,482.231018 
	C539.236389,486.233582 538.674072,494.487823 533.695435,497.235931 
	C534.317566,505.207489 534.946167,513.262024 535.600952,521.652405 
	C540.509949,521.652405 544.823669,521.645325 549.137390,521.654053 
	C555.625366,521.667175 559.279602,518.262634 559.568054,511.647278 
	C559.778381,506.824585 559.952393,501.980621 559.746521,497.163055 
	C559.055847,481.001434 565.629211,468.733276 579.785217,459.773438 
	C589.942810,453.866821 596.968994,444.985199 603.609619,434.863922 
	C604.103638,433.926147 604.597656,432.988342 605.013794,432.029144 
	C605.013794,432.029144 605.059082,432.096008 605.551208,431.735321 
M509.592834,495.862213 
	C506.469452,496.520172 501.918854,493.762939 500.527832,498.538422 
	C498.382080,505.904694 496.976227,513.486511 495.203278,521.208862 
	C507.674927,521.208862 518.856628,521.208862 530.463623,521.208862 
	C529.894958,516.918823 529.456665,513.155945 528.875732,509.415192 
	C528.570923,507.452881 528.134277,505.493164 527.552979,503.594788 
	C525.189270,495.875366 525.160156,495.883453 517.046631,495.869110 
	C514.886536,495.865295 512.726501,495.867920 509.592834,495.862213 
z"/>
  <path fill="#000000" opacity="1.000000" stroke="none" d="
M736.638977,735.146606 
	C731.809937,739.477051 726.980835,743.807495 721.717957,748.526978 
	C728.286499,767.911926 734.933655,787.529114 741.421753,806.676636 
	C730.560181,806.676636 718.419983,806.676636 704.563477,806.676636 
	C712.451050,798.202637 708.729370,790.591675 706.257141,782.917908 
	C703.245850,773.570557 700.054077,764.259705 697.601807,754.762268 
	C696.214783,749.390808 693.592346,747.317627 688.270142,748.199829 
	C687.004395,748.409607 685.674194,748.230957 683.730286,748.230957 
	C683.730286,758.150452 683.641724,767.755737 683.755249,777.358582 
	C683.867981,786.897949 682.104553,796.765442 688.973877,805.363647 
	C676.458130,805.363647 664.742554,805.363647 651.363831,805.363647 
	C660.460144,795.935120 657.906189,785.318726 657.973450,775.234009 
	C658.158936,747.404907 658.112976,719.574280 658.159180,691.744263 
	C658.167236,686.911560 658.674866,682.013245 658.047241,677.264771 
	C657.431091,672.603271 655.662598,668.094055 654.302612,663.165588 
	C656.942322,663.165588 659.693970,663.122864 662.443970,663.172546 
	C680.438477,663.497620 698.431946,664.002258 716.427246,664.072571 
	C721.098938,664.090820 724.744873,665.188904 727.895874,668.634460 
	C730.466980,671.445984 733.389038,673.936646 736.258545,677.241211 
	C736.453979,696.990845 736.546509,716.068726 736.638977,735.146606 
M691.441040,685.353149 
	C689.013367,685.353149 686.585754,685.353149 684.178345,685.353149 
	C684.178345,699.223267 684.178345,712.598145 684.178345,726.577515 
	C690.763062,726.577515 697.061890,726.798401 703.335754,726.497681 
	C707.319519,726.306641 710.084656,724.260803 710.054443,719.680176 
	C709.996277,710.879089 710.057129,702.077209 710.005859,693.276001 
	C709.978149,688.518982 707.215881,685.852051 702.335083,685.693542 
	C699.015564,685.585815 695.696167,685.475281 691.441040,685.353149 
z"/>
  <path fill="#000000" opacity="1.000000" stroke="none" d="
M642.682617,791.110901 
	C638.525391,795.169067 634.485291,799.360107 630.133606,803.197754 
	C628.954834,804.237122 626.831787,804.613586 625.145264,804.605896 
	C609.661255,804.535339 594.176514,804.377197 578.696167,804.048035 
	C576.914062,804.010193 574.945801,803.083130 573.424072,802.041870 
	C564.888306,796.201111 561.600037,788.659790 561.904724,777.723206 
	C562.813416,745.112854 562.335571,712.462219 562.234863,679.827820 
	C562.223694,676.211609 563.381897,673.761475 565.764587,671.064209 
	C571.674988,664.373901 578.400513,660.930054 587.583740,662.210388 
	C592.650879,662.916809 597.889648,662.391602 603.961182,662.412964 
	C613.001343,662.487549 621.131348,662.570740 629.261353,662.653931 
	C633.461731,666.679932 637.662170,670.705933 642.120605,675.389526 
	C642.377808,691.825073 642.338806,707.603027 642.385193,723.380798 
	C642.451599,745.957581 642.580444,768.534180 642.682617,791.110901 
M593.938110,782.065369 
	C599.266785,782.084045 604.599121,782.230408 609.923035,782.079468 
	C613.914368,781.966370 616.325134,780.092468 616.310059,775.647278 
	C616.215942,747.838318 616.262207,720.028625 616.043823,692.220886 
	C616.026917,690.066467 614.338318,687.925232 613.010254,685.090820 
	C606.608704,684.861450 600.208069,684.564209 593.804504,684.478394 
	C592.879089,684.466064 591.940063,685.469604 590.579651,686.265625 
	C590.291382,686.669617 590.003113,687.073547 589.040344,687.940674 
	C588.781006,690.216431 588.303528,692.491394 588.295654,694.768005 
	C588.203491,721.507935 588.060608,748.249390 588.353333,774.985840 
	C588.378967,777.326721 591.385498,779.634949 593.938110,782.065369 
z"/>
  <path fill="#000000" opacity="1.000000" stroke="none" d="
M749.614075,677.774841 
	C753.394775,674.272400 757.045532,670.611084 761.027771,667.355164 
	C762.389893,666.241516 764.591919,665.632324 766.395264,665.663330 
	C782.040833,665.931458 797.691589,666.219727 813.317261,666.984436 
	C815.863098,667.109070 818.385315,669.460754 820.759155,671.024963 
	C827.591370,675.526733 830.266418,681.639893 829.267578,690.017334 
	C828.448486,696.887329 829.100708,703.932678 829.100708,711.022034 
	C819.150696,713.657043 809.540222,716.202087 800.768738,718.524902 
	C801.542053,711.281128 802.532776,703.764526 803.086304,696.215942 
	C803.476746,690.892273 800.915344,688.450928 795.435120,688.255371 
	C791.276428,688.106995 787.113220,688.075378 782.951721,688.020203 
	C777.726807,687.950867 775.923096,689.742676 775.904602,695.156189 
	C775.819214,720.128418 775.760803,745.100830 775.693604,770.073120 
	C775.684631,773.402832 775.680786,776.732483 775.713928,780.796265 
	C775.868164,781.680908 775.983032,781.831421 776.097900,781.981995 
	C777.684204,785.208252 780.332275,786.156860 783.810181,786.070129 
	C788.130371,785.962280 792.558105,786.881714 796.749573,786.196533 
	C799.056580,785.819336 802.650085,783.182007 802.782654,781.354553 
	C803.417542,772.606506 803.067383,763.787109 803.067383,753.829468 
	C798.297668,754.692505 794.070190,755.457520 789.781067,756.233643 
	C789.781067,748.185059 789.781067,739.777405 789.781067,731.668701 
	C802.930298,731.668701 815.812622,731.668701 829.238647,731.668701 
	C829.238647,740.772461 829.241211,749.052368 829.238037,757.332275 
	C829.233459,769.320984 829.400940,781.314636 829.070801,793.294434 
	C829.003906,795.720215 827.435303,798.380737 825.899414,800.441284 
	C819.884277,808.510559 811.868652,810.612122 801.898682,809.494019 
	C790.683960,808.236389 779.291199,808.431824 767.972534,808.310242 
	C764.196899,808.269714 761.353455,807.244568 758.892639,804.370483 
	C755.981750,800.970825 752.760559,797.836731 749.613708,793.880493 
	C749.573730,754.707214 749.593872,716.241028 749.614075,677.774841 
z"/>
  <path fill="#000000" opacity="1.000000" stroke="none" d="
M124.944084,739.117188 
	C116.433479,735.826416 113.501785,730.329651 114.321915,721.290344 
	C115.326683,710.216003 114.358253,698.974548 114.701271,687.819458 
	C114.782539,685.176819 116.320099,682.350464 117.825943,680.021240 
	C123.127289,671.821167 130.895538,669.591370 140.450027,669.923462 
	C151.412796,670.304504 162.437271,669.471252 173.408539,668.758850 
	C177.587524,668.487549 180.447632,669.967041 183.731323,672.316284 
	C190.011841,676.809509 192.788452,682.047791 191.823730,689.965027 
	C191.004883,696.685181 191.654770,703.584229 191.654770,710.562805 
	C182.160980,713.922241 172.781052,717.241394 164.081741,720.319702 
	C164.831543,713.334473 165.851837,706.015869 166.327972,698.662048 
	C166.673309,693.328064 164.470261,691.442261 159.217743,691.582764 
	C155.053024,691.694092 150.888336,691.813477 146.724976,691.966064 
	C142.307068,692.127930 140.092667,694.522156 140.047684,698.871277 
	C139.994263,704.036865 140.236877,709.211914 139.999222,714.366699 
	C139.856384,717.464905 141.073410,719.198547 143.667465,720.665039 
	C158.448517,729.022034 173.100433,737.609375 187.942963,745.854248 
	C191.337189,747.739685 192.429245,749.895081 192.355743,753.706360 
	C192.101944,766.867188 192.150085,780.037048 192.317169,793.200562 
	C192.360504,796.615784 191.080109,798.913147 189.039032,801.575806 
	C182.949326,809.520081 175.393799,812.489868 165.369537,812.084167 
	C154.082062,811.627502 142.731461,812.738464 131.408051,813.160645 
	C123.490211,813.455811 114.640892,804.791382 114.524055,796.843018 
	C114.393082,787.932617 114.067390,779.025024 113.804428,769.302856 
	C122.684349,766.725891 132.642349,763.835999 143.802185,760.597351 
	C138.882553,768.415771 139.254517,776.163940 139.621552,783.916992 
	C139.823944,788.192444 142.214172,790.477234 146.563965,790.324341 
	C150.727051,790.177979 154.887650,789.939148 159.046021,789.686157 
	C164.916855,789.329102 166.760910,787.446228 166.668503,781.698181 
	C166.569534,775.541992 168.306473,768.236267 165.586212,763.558167 
	C162.881607,758.907043 155.669342,756.836609 150.369751,753.744263 
	C142.029724,748.877808 133.636032,744.103333 124.944084,739.117188 
z"/>
  <path fill="#000000" opacity="1.000000" stroke="none" d="
M205.131531,714.966125 
	C205.230545,710.623596 205.329559,706.281128 205.408539,701.041931 
	C205.326538,696.742371 205.264557,693.339417 205.202576,689.936523 
	C206.854172,681.927246 204.501511,674.614014 200.247314,666.774658 
	C212.380615,666.774658 223.480362,666.774658 235.149368,666.774658 
	C229.773773,674.726868 230.212906,683.992065 230.443909,693.297119 
	C230.672974,702.524658 230.494019,711.762268 230.494019,722.326965 
	C238.728058,706.276733 246.339233,691.564575 253.754944,676.754639 
	C254.361603,675.543091 253.926117,673.570679 253.458435,672.118103 
	C252.810715,670.106323 251.673080,668.252380 250.288406,665.384888 
	C262.544739,665.384888 274.097534,665.384888 285.767883,665.384888 
	C282.186890,672.193054 278.359131,679.432434 274.566223,686.690063 
	C268.324738,698.632751 261.981140,710.525452 255.998795,722.596924 
	C254.989853,724.632812 254.736755,727.796692 255.561951,729.871643 
	C263.859680,750.736084 272.403992,771.503296 281.005798,792.245300 
	C283.019531,797.101074 285.511993,801.758301 288.232574,807.443909 
	C275.521545,807.443909 263.296082,807.443909 250.727890,807.443909 
	C250.930084,807.912659 250.622681,807.492493 250.714142,807.369995 
	C255.875412,800.454834 254.023209,793.653687 251.039444,786.445190 
	C247.034851,776.770386 243.748245,766.798706 240.128143,756.963806 
	C239.801910,756.077454 239.290878,755.259094 238.878372,754.434570 
	C232.630508,761.113464 229.545395,768.628662 230.751755,777.697937 
	C231.099915,780.315308 230.864304,783.022095 230.774063,785.683838 
	C230.502899,793.681152 230.323059,801.647156 236.691101,809.479126 
	C224.000961,809.479126 212.762848,809.479126 201.066513,809.479126 
	C202.191574,807.144958 203.503967,804.422180 204.993652,801.109619 
	C205.147476,800.339600 205.123978,800.159363 205.100494,799.979187 
	C205.207031,781.088623 205.331955,762.198181 205.411758,743.307495 
	C205.447495,734.850098 205.392746,726.392334 205.354279,717.143921 
	C205.263504,715.890808 205.197510,715.428467 205.131531,714.966125 
z"/>
  <path fill="#F9C64E" opacity="1.000000" stroke="none" d="
M638.219971,298.758484 
	C658.486877,320.045380 672.837891,344.900238 679.811035,373.329498 
	C695.452698,437.099884 677.713196,491.616486 631.809509,537.566284 
	C618.879517,550.509277 603.714050,560.450134 587.245483,568.389160 
	C585.790039,569.090820 584.263916,569.646240 582.171570,570.519592 
	C582.171570,556.181458 582.046997,542.419434 582.349243,528.666748 
	C582.382324,527.161743 584.609070,525.260437 586.259338,524.302856 
	C607.413208,512.028442 625.502686,496.433838 640.061829,476.635925 
	C678.029846,425.006226 677.517456,352.405487 638.564941,301.425720 
	C638.262024,301.029297 637.987671,300.611084 637.749390,299.700684 
	C637.939209,299.051666 638.079590,298.905060 638.219971,298.758484 
z"/>
  <path fill="#F8C64F" opacity="1.000000" stroke="none" d="
M443.950500,568.982178 
	C442.329559,568.718384 440.532013,568.821045 439.113434,568.137390 
	C401.364960,549.944702 373.683472,521.756592 355.884338,483.864838 
	C327.578705,423.606201 340.462158,351.609161 384.551361,301.522644 
	C385.367310,300.595703 386.377045,299.839325 387.977478,299.492035 
	C387.524902,300.427979 387.198395,301.454193 386.601837,302.286957 
	C334.759460,374.660797 354.825378,471.437744 432.029602,519.428162 
	C441.109711,525.072327 445.813171,530.542542 443.831024,541.115417 
	C443.348724,543.688110 443.788269,546.433655 443.825287,550.007935 
	C443.896545,553.934570 443.946472,556.953003 443.996368,559.971497 
	C443.919250,562.361328 443.842163,564.751099 443.799072,567.819824 
	C443.833099,568.498779 443.950500,568.982178 443.950500,568.982178 
z"/>
  <path fill="#000000" opacity="1.000000" stroke="none" d="
M841.087402,674.974976 
	C840.799561,674.169128 840.511719,673.363342 839.972229,671.858154 
	C839.440491,670.020813 839.160400,668.882812 838.910400,667.867004 
	C845.271057,667.867004 851.138672,667.867004 857.006287,667.867004 
	C874.791931,668.564514 892.577576,669.262085 910.480957,669.964233 
	C910.480957,679.467407 910.480957,688.689209 910.480957,698.184387 
	C897.842896,687.676575 882.981262,692.255432 868.800415,690.450989 
	C868.800415,703.053894 868.800415,715.283203 868.800415,728.085754 
	C878.216125,727.523682 887.985901,731.411438 896.929138,723.517578 
	C896.929138,735.087463 896.929138,745.621704 896.929138,757.270020 
	C888.467896,749.386169 878.484253,750.889404 868.520935,750.400513 
	C868.520935,763.641052 868.520935,776.563477 868.520935,789.984680 
	C878.550049,790.381836 888.636658,791.018311 898.722412,791.004150 
	C901.068970,791.000854 903.431274,788.818481 905.750671,787.572510 
	C907.298279,786.741211 908.782898,785.792603 910.693359,784.661011 
	C910.693359,794.327698 910.693359,803.416992 910.693359,813.338440 
	C886.513123,812.392822 862.371399,811.448730 837.397339,810.472107 
	C838.784790,807.855652 839.835327,805.874695 841.256470,803.291260 
	C842.026978,800.956543 842.771362,799.225037 842.775818,797.491699 
	C842.874573,759.006531 842.924072,720.520996 842.845337,682.035889 
	C842.840515,679.681030 841.699646,677.328552 841.087402,674.974976 
z"/>
  <path fill="#000000" opacity="1.000000" stroke="none" d="
M540.571533,683.921631 
	C530.658936,683.920349 521.200256,683.920349 511.450958,683.920349 
	C511.450958,695.865356 511.450958,707.455200 511.450958,719.427490 
	C521.200012,719.686218 531.074951,721.491638 539.913757,713.656555 
	C539.913757,725.341309 539.913757,736.005798 539.913757,747.565002 
	C531.295410,740.307495 521.452209,742.173401 511.548737,741.930115 
	C511.432922,743.282532 511.232788,744.541687 511.231659,745.800903 
	C511.221802,756.961914 511.322510,768.123413 511.237457,779.283691 
	C511.174072,787.601929 510.568695,795.974426 516.485535,803.720337 
	C503.898163,803.720337 492.241852,803.720337 479.565643,803.720337 
	C487.383331,795.439758 485.704407,785.617676 485.693207,776.106506 
	C485.654205,742.957336 485.771667,709.806274 485.390167,676.661011 
	C485.335846,671.941162 482.854950,667.249268 481.469788,662.449707 
	C505.439331,662.449707 529.484497,662.449707 553.796875,662.449707 
	C553.796875,671.636475 553.796875,680.573364 553.796875,689.402466 
	C549.636475,687.617493 545.330933,685.770264 540.571533,683.921631 
z"/>
  <path fill="#000000" opacity="1.000000" stroke="none" d="
M464.993896,781.967102 
	C468.965271,779.716675 472.936646,777.466248 477.296448,774.995728 
	C477.296448,784.638367 477.296448,794.052979 477.296448,803.852844 
	C453.830811,803.852844 430.117554,803.852844 405.564056,803.852844 
	C413.523712,793.513123 411.037201,781.755798 411.117920,770.453918 
	C411.304779,744.292358 411.237640,718.128296 411.144501,691.965759 
	C411.109406,682.102356 413.070251,671.895508 405.772980,662.500977 
	C418.393738,662.500977 429.881958,662.500977 442.186829,662.500977 
	C434.035431,673.294128 437.007172,685.586914 436.881012,697.339539 
	C436.596619,723.832336 436.855469,750.331055 436.892761,776.827332 
	C436.895050,778.458191 436.893036,780.089050 436.893036,782.233582 
	C445.858276,782.233582 454.464508,782.233582 463.788940,782.211182 
	C464.669434,782.114868 464.831665,782.040955 464.993896,781.967102 
z"/>
  <path fill="#F8C650" opacity="1.000000" stroke="none" d="
M507.999512,602.243286 
	C495.337952,602.190796 483.170990,601.913391 471.017578,602.203247 
	C466.194916,602.318298 464.804901,600.494690 465.226318,596.125732 
	C465.430481,594.009277 465.261627,591.856812 465.261627,588.640381 
	C491.741577,588.640381 517.809570,588.640381 543.877625,588.640381 
	C543.911804,587.921570 543.945984,587.202820 543.980164,586.484009 
	C518.020752,584.418884 492.061432,582.353699 465.801880,580.264648 
	C465.801880,576.033386 465.801880,572.136841 465.801880,567.869324 
	C494.488098,567.353149 522.909790,566.841736 551.331543,566.330322 
	C551.351807,565.850098 551.372009,565.369812 551.392212,564.889587 
	C523.010376,562.621277 494.628448,560.353027 465.912231,558.057983 
	C465.912231,553.680115 465.912231,549.622864 465.912231,545.233643 
	C497.506744,545.233643 529.052795,545.233643 561.118103,545.233643 
	C561.118103,554.495422 561.125183,563.602417 561.115967,572.709412 
	C561.108093,580.539551 560.858398,588.377930 561.146912,596.196777 
	C561.320923,600.912537 559.399414,602.241272 554.980347,602.203308 
	C539.488037,602.070068 523.993286,602.209778 507.999512,602.243286 
z"/>
  <path fill="#000000" opacity="1.000000" stroke="none" d="
M365.130829,670.022522 
	C364.485962,672.213623 363.286133,674.402954 363.279205,676.596069 
	C363.170135,711.064148 363.213593,745.532776 363.231171,780.001221 
	C363.231598,780.792480 363.338623,781.583801 363.422211,782.738464 
	C372.815613,782.738464 382.025543,783.526428 390.994080,782.397095 
	C395.306366,781.854065 399.162964,777.692078 403.534424,774.977356 
	C403.534424,784.601196 403.534424,794.241211 403.534424,804.617249 
	C380.245880,804.617249 356.850739,804.617249 333.303802,804.617249 
	C334.723175,801.246765 336.297211,797.509033 337.833008,793.125916 
	C337.723694,792.026489 337.652527,791.572571 337.581360,791.118591 
	C337.654205,787.695374 337.727051,784.272156 337.778870,779.952515 
	C337.735168,753.711426 337.712402,728.366760 337.689667,703.022156 
	C337.827179,693.880127 338.444458,684.708496 337.883575,675.609558 
	C337.633362,671.550354 335.013855,667.637268 333.295288,663.208496 
	C344.761536,663.208496 356.103577,663.208496 367.685638,663.208496 
	C367.440674,663.994080 367.161957,664.887817 366.563843,666.366211 
	C365.873230,667.974792 365.502014,668.998657 365.130829,670.022522 
z"/>
  <path fill="#000000" opacity="1.000000" stroke="none" d="
M295.142303,775.161682 
	C295.138031,742.381409 295.288147,710.077087 294.943604,677.778015 
	C294.897095,673.418640 292.363434,669.085754 290.762207,664.051270 
	C302.169159,664.051270 313.370117,664.051270 325.098145,664.051270 
	C318.253021,676.375977 321.350891,689.900452 321.144623,703.027832 
	C320.728729,729.496216 321.106781,755.976257 320.966797,782.450378 
	C320.925171,790.326416 320.516785,798.142700 327.087585,805.660706 
	C314.139160,805.660706 302.518707,805.660706 290.395538,805.660706 
	C297.508179,796.672485 294.615936,785.916870 295.142303,775.161682 
z"/>
  <path fill="#F7C650" opacity="1.000000" stroke="none" d="
M525.875977,612.122070 
	C528.962341,612.116699 531.570068,612.116699 534.447876,612.116699 
	C525.735474,622.464783 504.493439,625.023132 491.779388,612.127380 
	C503.309509,612.127380 514.353516,612.127380 525.875977,612.122070 
z"/>
  <path fill="#343F50" opacity="1.000000" stroke="none" d="
M840.863464,675.253174 
	C841.699646,677.328552 842.840515,679.681030 842.845337,682.035889 
	C842.924072,720.520996 842.874573,759.006531 842.775818,797.491699 
	C842.771362,799.225037 842.026978,800.956543 841.325989,802.954712 
	C841.030334,762.787048 841.041992,722.353577 841.024353,681.920044 
	C841.023438,679.790466 840.773499,677.660950 840.863464,675.253174 
z"/>
  <path fill="#11203D" opacity="1.000000" stroke="none" d="
M749.259888,678.055908 
	C749.593872,716.241028 749.573730,754.707214 749.417114,793.631714 
	C748.854919,792.392090 748.060974,790.694824 748.057556,788.995972 
	C747.986145,753.700317 747.992615,718.404358 748.043091,683.108582 
	C748.045410,681.517639 748.605469,679.927429 749.259888,678.055908 
z"/>
  <path fill="#11203D" opacity="1.000000" stroke="none" d="
M337.344879,703.184814 
	C337.712402,728.366760 337.735168,753.711426 337.670044,779.515747 
	C337.055603,778.712646 336.074707,777.451599 336.069824,776.186768 
	C335.980286,752.959229 335.994598,729.731140 336.052032,706.503418 
	C336.054688,705.450623 336.670074,704.399414 337.344879,703.184814 
z"/>
  <path fill="#11203D" opacity="1.000000" stroke="none" d="
M643.000854,790.817993 
	C642.580444,768.534180 642.451599,745.957581 642.385193,723.380798 
	C642.338806,707.603027 642.377808,691.825073 642.356934,675.586548 
	C642.892090,676.556030 643.931580,677.984924 643.935059,679.416321 
	C644.022949,715.335205 644.007935,751.254395 643.971252,787.173523 
	C643.970154,788.290894 643.545959,789.407959 643.000854,790.817993 
z"/>
  <path fill="#11203D" opacity="1.000000" stroke="none" d="
M736.960571,734.849854 
	C736.546509,716.068726 736.453979,696.990845 736.429260,677.508423 
	C736.995300,678.237061 737.921814,679.368103 737.927551,680.503845 
	C738.015198,697.742004 737.991333,714.980774 737.948059,732.219299 
	C737.946106,732.997742 737.513977,733.775208 736.960571,734.849854 
z"/>
  <path fill="#343F50" opacity="1.000000" stroke="none" d="
M856.863220,667.504639 
	C851.138672,667.867004 845.271057,667.867004 838.910400,667.867004 
	C839.160400,668.882812 839.440491,670.020813 839.794495,671.585388 
	C839.051270,670.601318 838.234131,669.190674 837.416931,667.780151 
	C838.676880,667.205750 839.951538,666.112183 841.194153,666.147400 
	C846.374756,666.294128 851.545654,666.780457 856.863220,667.504639 
z"/>
  <path fill="#11203D" opacity="1.000000" stroke="none" d="
M628.976196,662.295166 
	C621.131348,662.570740 613.001343,662.487549 604.412109,662.286377 
	C606.815369,661.777649 609.681335,661.041016 612.539429,661.070557 
	C617.925720,661.126038 623.307373,661.622986 628.976196,662.295166 
z"/>
  <path fill="#11203D" opacity="1.000000" stroke="none" d="
M204.905518,690.226746 
	C205.264557,693.339417 205.326538,696.742371 205.277023,700.596558 
	C204.979843,697.537537 204.794159,694.027222 204.905518,690.226746 
z"/>
  <path fill="#11203D" opacity="1.000000" stroke="none" d="
M444.259521,559.674072 
	C443.946472,556.953003 443.896545,553.934570 443.919800,550.469971 
	C444.169556,553.141418 444.346100,556.259094 444.259521,559.674072 
z"/>
  <path fill="#3C4C62" opacity="1.000000" stroke="none" d="
M365.461487,669.894714 
	C365.502014,668.998657 365.873230,667.974792 366.499512,666.740601 
	C366.433777,667.609131 366.112946,668.688049 365.461487,669.894714 
z"/>
  <path fill="#F9C64E" opacity="1.000000" stroke="none" d="
M637.580688,299.410767 
	C637.074768,299.170563 636.786804,298.717804 636.498901,298.265045 
	C636.960815,298.273621 637.422791,298.282196 638.052368,298.524658 
	C638.079590,298.905060 637.939209,299.051666 637.580688,299.410767 
z"/>
  <path fill="#11203D" opacity="1.000000" stroke="none" d="
M337.303894,791.253174 
	C337.652527,791.572571 337.723694,792.026489 337.744324,792.823853 
	C337.471344,792.574036 337.248901,791.980957 337.303894,791.253174 
z"/>
  <path fill="#11203D" opacity="1.000000" stroke="none" d="
M204.917175,715.129272 
	C205.197510,715.428467 205.263504,715.890808 205.227478,716.692139 
	C204.984604,716.451538 204.843719,715.872009 204.917175,715.129272 
z"/>
  <path fill="#11203D" opacity="1.000000" stroke="none" d="
M204.957092,800.068359 
	C205.123978,800.159363 205.147476,800.339600 205.022766,800.748779 
	C204.559448,800.696655 204.539169,800.423340 204.957092,800.068359 
z"/>
  <path fill="#11203D" opacity="1.000000" stroke="none" d="
M464.882385,781.837158 
	C464.831665,782.040955 464.669434,782.114868 464.249084,782.118774 
	C464.250916,781.934937 464.510895,781.821106 464.882385,781.837158 
z"/>
  <path fill="#11203D" opacity="1.000000" stroke="none" d="
M776.212280,781.854614 
	C775.983032,781.831421 775.868164,781.680908 775.817200,781.253540 
	C776.029602,781.226929 776.178162,781.477112 776.212280,781.854614 
z"/>
  <path fill="#11203D" opacity="1.000000" stroke="none" d="
M444.088562,568.886475 
	C443.950500,568.982178 443.833099,568.498779 443.895844,568.258484 
	C444.338593,568.210938 444.427948,568.468445 444.088562,568.886475 
z"/>
  <path fill="#00000" opacity="1.000000" stroke="none" d="
M610.129944,422.498871 
	C610.031311,422.924500 609.932617,423.350128 609.341736,424.118958 
	C608.609558,425.166290 608.369568,425.870392 608.129639,426.574493 
	C607.673828,427.628998 607.218079,428.683502 606.252625,430.063843 
	C605.515015,430.958466 605.287048,431.527252 605.059082,432.096008 
	C605.059082,432.096008 605.013794,432.029144 604.698792,432.109680 
	C603.952454,433.207916 603.521118,434.225677 603.089783,435.243408 
	C596.968994,444.985199 589.942810,453.866821 579.031982,459.901398 
	C575.411865,460.551880 572.514587,460.947021 569.683655,461.620667 
	C561.072144,463.669952 552.529907,466.044617 543.858582,467.783417 
	C541.779663,468.200317 539.304565,466.642029 537.423889,465.977051 
	C539.962036,465.635406 542.081116,465.253204 544.215027,464.991180 
	C560.194092,463.029022 574.621704,457.425476 585.579102,445.322144 
	C600.678711,428.643372 611.328430,409.880585 613.292542,386.631012 
	C614.168152,376.266174 613.437439,366.354736 610.599915,356.684387 
	C606.103882,341.362030 596.871582,329.189026 585.129639,318.189972 
	C573.065735,306.889282 560.311768,297.681763 544.093506,293.908112 
	C535.275208,291.856323 526.498779,289.051361 517.112732,291.012634 
	C516.988892,290.919128 516.701111,290.802612 516.347290,290.643494 
	C496.318268,289.145477 477.843475,293.165955 461.150940,303.751801 
	C440.861725,316.618530 430.301208,335.804108 426.201630,359.149719 
	C422.044464,362.190521 422.061432,363.417877 425.957458,365.271118 
	C425.939514,366.067108 425.855560,366.599213 425.364319,367.128906 
	C424.047333,367.739044 422.523041,368.199493 422.327667,368.988861 
	C421.057281,374.121002 419.050659,379.350677 419.181763,384.500153 
	C419.678009,403.989197 425.591125,421.783508 438.390747,436.800751 
	C450.250977,450.715851 464.975311,459.820465 483.484344,461.766510 
	C485.330566,461.960632 487.347198,460.533569 489.284760,459.858887 
	C490.361603,464.351746 491.805328,468.796997 492.396118,473.352875 
	C492.847229,476.831451 494.440399,480.898376 489.675171,483.467407 
	C488.679230,484.004395 489.009155,487.165314 488.894806,489.126770 
	C488.778839,491.116150 488.869232,493.117584 488.869232,495.435303 
	C490.027527,495.779236 491.378204,496.180328 492.730988,496.582031 
	C492.103729,504.895599 491.491943,513.004089 490.824036,521.856018 
	C485.206146,521.856018 479.568604,522.065979 473.955353,521.786804 
	C469.769714,521.578674 466.479156,517.244080 466.373413,512.069641 
	C466.261139,506.575928 466.459137,501.075684 466.532776,495.578461 
	C466.718781,481.690155 461.244843,470.776184 449.617371,462.987091 
	C413.120117,438.538025 397.298004,392.036499 410.954865,347.740448 
	C423.892303,305.777710 462.821594,274.995758 506.780609,272.936829 
	C552.354492,270.802277 591.968140,294.638947 610.503723,336.131866 
	C622.771179,363.593170 623.278870,391.576416 611.181763,420.023560 
	C610.480896,421.159180 610.305420,421.829010 610.129944,422.498871 
z"/>
  <path fill="#343F50" opacity="1.000000" stroke="none" d="
M537.817139,457.982300 
	C538.257385,456.132050 538.697693,454.281830 539.737915,452.153290 
	C577.539001,447.358459 598.071289,417.483978 600.759033,384.771881 
	C602.861511,359.182495 592.227417,338.162109 572.473450,321.997894 
	C547.175537,301.297150 518.253052,298.178253 487.417206,305.355164 
	C481.190002,306.804565 474.996643,308.399414 468.962097,309.617798 
	C483.778778,300.023163 499.441254,293.360016 516.701111,290.802612 
	C516.701111,290.802612 516.988892,290.919128 517.057495,291.392029 
	C518.488647,297.391327 523.534546,295.333832 526.645935,295.766510 
	C553.231750,299.463409 575.213928,311.165100 591.617859,332.497375 
	C607.555542,353.223328 611.985229,376.625946 604.767273,401.634460 
	C594.712769,436.470978 573.424683,454.954834 537.817139,457.982300 
z"/>
  <path fill="#00000" opacity="1.000000" stroke="none" d="
M537.604797,458.274811 
	C573.424683,454.954834 594.712769,436.470978 604.767273,401.634460 
	C611.985229,376.625946 607.555542,353.223328 591.617859,332.497375 
	C575.213928,311.165100 553.231750,299.463409 526.645935,295.766510 
	C523.534546,295.333832 518.488647,297.391327 517.181396,291.485535 
	C526.498779,289.051361 535.275208,291.856323 544.093506,293.908112 
	C560.311768,297.681763 573.065735,306.889282 585.129639,318.189972 
	C596.871582,329.189026 606.103882,341.362030 610.599915,356.684387 
	C613.437439,366.354736 614.168152,376.266174 613.292542,386.631012 
	C611.328430,409.880585 600.678711,428.643372 585.579102,445.322144 
	C574.621704,457.425476 560.194092,463.029022 544.215027,464.991180 
	C542.081116,465.253204 539.962036,465.635406 537.277527,465.762634 
	C536.440796,465.361145 536.162537,465.158936 535.884338,464.956726 
	C536.387085,462.826935 536.889771,460.697144 537.604797,458.274811 
z"/>
  <path fill="#000000" opacity="1.000000" stroke="none" d="
M535.665222,465.272705 
	C536.162537,465.158936 536.440796,465.361145 536.865356,465.777771 
	C539.304565,466.642029 541.779663,468.200317 543.858582,467.783417 
	C552.529907,466.044617 561.072144,463.669952 569.683655,461.620667 
	C572.514587,460.947021 575.411865,460.551880 578.720215,460.045044 
	C565.629211,468.733276 559.055847,481.001434 559.746521,497.163055 
	C559.952393,501.980621 559.778381,506.824585 559.568054,511.647278 
	C559.279602,518.262634 555.625366,521.667175 549.137390,521.654053 
	C544.823669,521.645325 540.509949,521.652405 535.600952,521.652405 
	C534.946167,513.262024 534.317566,505.207489 533.695435,497.235931 
	C538.674072,494.487823 539.236389,486.233582 535.031921,482.231018 
	C534.229065,481.466675 533.609192,479.973907 533.708984,478.891296 
	C534.119141,474.441528 534.839722,470.020386 535.665222,465.272705 
z"/>
  <path fill="#3E4654" opacity="1.000000" stroke="none" d="
M468.787689,309.927185 
	C474.996643,308.399414 481.190002,306.804565 487.417206,305.355164 
	C518.253052,298.178253 547.175537,301.297150 572.473450,321.997894 
	C592.227417,338.162109 602.861511,359.182495 600.759033,384.771881 
	C598.071289,417.483978 577.539001,447.358459 539.897095,451.838684 
	C540.063721,449.971893 540.671082,448.141388 542.032349,446.146667 
	C548.517334,444.491608 554.645691,443.844666 559.911682,441.365723 
	C584.379333,429.847595 600.173645,396.761658 595.252869,369.760376 
	C590.852051,345.612518 577.562439,328.177063 556.323181,316.802399 
	C541.597534,308.916107 525.685486,306.119751 508.815033,306.817719 
	C488.350708,307.664368 470.812653,314.934662 454.968842,327.398590 
	C452.122284,329.637878 448.594391,331.011139 445.529114,332.461670 
	C452.382721,325.402222 459.088257,318.665344 466.029846,311.839233 
	C466.507690,311.522125 466.749451,311.294250 467.219727,310.923035 
	C467.894714,310.495514 468.341217,310.211334 468.787689,309.927185 
z"/>
  <path fill="#4F5258" opacity="1.000000" stroke="none" d="
M543.586609,438.813660 
	C543.773376,437.986328 543.960205,437.159027 544.757568,436.110321 
	C547.738831,435.179840 550.270691,434.795471 552.455566,433.711609 
	C575.443115,422.307617 586.101868,402.825012 585.728027,378.057465 
	C585.368713,354.258606 573.255920,336.512604 552.255066,325.151947 
	C536.012451,316.365356 518.742981,314.976440 500.515564,316.762451 
	C474.505554,319.311127 442.410736,344.729523 442.478088,372.145386 
	C442.519135,388.846161 444.093384,404.232727 454.013336,417.850891 
	C460.687805,427.013641 469.806305,432.842834 481.113922,434.924438 
	C481.113922,434.924438 481.062195,434.975342 481.173798,435.167206 
	C481.558105,435.562683 481.830811,435.766296 482.103516,435.969910 
	C482.422272,436.760101 482.740997,437.550323 482.646729,438.668213 
	C469.624237,435.951813 458.741364,430.133545 450.745758,419.579987 
	C440.732574,406.363312 438.876526,391.012146 439.002777,375.132660 
	C439.190277,351.555115 450.596497,334.309113 470.655151,323.403900 
	C494.228302,310.587891 519.255737,308.348022 544.797852,317.808014 
	C574.329590,328.745667 594.101685,356.849915 589.110657,389.265717 
	C585.694214,411.454773 573.899231,427.159271 553.869202,436.743164 
	C550.811462,438.206207 547.032166,438.161163 543.586609,438.813660 
z"/>
  <path fill="#494E57" opacity="1.000000" stroke="none" d="
M543.380127,439.060791 
	C547.032166,438.161163 550.811462,438.206207 553.869202,436.743164 
	C573.899231,427.159271 585.694214,411.454773 589.110657,389.265717 
	C594.101685,356.849915 574.329590,328.745667 544.797852,317.808014 
	C519.255737,308.348022 494.228302,310.587891 470.655151,323.403900 
	C450.596497,334.309113 439.190277,351.555115 439.002777,375.132660 
	C438.876526,391.012146 440.732574,406.363312 450.745758,419.579987 
	C458.741364,430.133545 469.624237,435.951813 482.643463,438.996765 
	C483.413147,440.098480 483.773102,441.199371 483.671570,442.649353 
	C479.400848,441.929352 475.516754,441.071594 471.795685,439.753662 
	C457.644104,434.741364 447.711548,424.808655 442.187439,411.245697 
	C438.868042,403.095856 437.112244,394.095764 435.986633,385.307098 
	C433.003601,362.015778 440.403992,342.299591 458.977325,327.631714 
	C488.287628,304.484528 530.276062,302.346527 561.151245,322.923035 
	C585.367554,339.061859 596.805725,361.837067 591.970947,391.294403 
	C588.315552,413.565704 576.749878,430.392395 555.857849,439.960663 
	C551.785950,441.825500 547.479492,444.552277 542.604614,441.821411 
	C542.794312,440.983582 542.984009,440.145782 543.380127,439.060791 
z"/>
  <path fill="#58575A" opacity="1.000000" stroke="none" d="
M481.103394,434.530823 
	C469.806305,432.842834 460.687805,427.013641 454.013336,417.850891 
	C444.093384,404.232727 442.519135,388.846161 442.478088,372.145386 
	C442.410736,344.729523 474.505554,319.311127 500.515564,316.762451 
	C518.742981,314.976440 536.012451,316.365356 552.255066,325.151947 
	C573.255920,336.512604 585.368713,354.258606 585.728027,378.057465 
	C586.101868,402.825012 575.443115,422.307617 552.455566,433.711609 
	C550.270691,434.795471 547.738831,435.179840 544.950439,435.857147 
	C545.091187,434.009125 545.649658,432.192902 546.788391,430.258850 
	C549.086487,430.007904 551.309875,430.519775 552.438599,429.635071 
	C558.933533,424.544220 566.393005,420.051971 571.263184,413.638824 
	C585.783569,394.518127 585.739563,364.763062 571.769897,345.756531 
	C558.710022,327.987793 539.855835,320.297546 518.703125,319.247650 
	C496.386719,318.140015 476.285065,324.145447 460.004913,341.165344 
	C448.683136,353.001526 445.438507,367.217834 445.413330,382.253204 
	C445.396912,392.059814 448.069031,401.984436 453.369354,410.752960 
	C459.655884,421.152893 468.293213,428.342163 480.601013,430.818726 
	C480.736847,430.880188 481.014374,430.992554 481.014374,430.992554 
	C481.040527,432.040771 481.066711,433.089020 481.103394,434.530823 
z"/>
  <path fill="#444A55" opacity="1.000000" stroke="none" d="
M542.378296,442.102661 
	C547.479492,444.552277 551.785950,441.825500 555.857849,439.960663 
	C576.749878,430.392395 588.315552,413.565704 591.970947,391.294403 
	C596.805725,361.837067 585.367554,339.061859 561.151245,322.923035 
	C530.276062,302.346527 488.287628,304.484528 458.977325,327.631714 
	C440.403992,342.299591 433.003601,362.015778 435.986633,385.307098 
	C437.112244,394.095764 438.868042,403.095856 442.187439,411.245697 
	C447.711548,424.808655 457.644104,434.741364 471.795685,439.753662 
	C475.516754,441.071594 479.400848,441.929352 483.622070,442.998596 
	C484.045227,443.416840 484.056366,443.834991 483.803467,444.832367 
	C479.725159,444.613647 475.842926,444.051178 472.109528,442.973206 
	C461.287750,439.848389 452.914337,433.026428 446.263092,424.271271 
	C435.653625,410.305756 432.287506,393.739410 432.327271,376.814301 
	C432.347778,368.081329 435.825073,359.368713 437.588043,350.616180 
	C437.899811,349.068481 437.459991,347.369354 437.481750,345.397949 
	C440.191223,340.965210 442.786133,336.874725 445.381042,332.784241 
	C448.594391,331.011139 452.122284,329.637878 454.968842,327.398590 
	C470.812653,314.934662 488.350708,307.664368 508.815033,306.817719 
	C525.685486,306.119751 541.597534,308.916107 556.323181,316.802399 
	C577.562439,328.177063 590.852051,345.612518 595.252869,369.760376 
	C600.173645,396.761658 584.379333,429.847595 559.911682,441.365723 
	C554.645691,443.844666 548.517334,444.491608 542.345337,445.973053 
	C541.987000,444.770386 542.069458,443.577148 542.378296,442.102661 
z"/>
  <path fill="#605D5D" opacity="1.000000" stroke="none" d="
M480.465179,430.757294 
	C468.293213,428.342163 459.655884,421.152893 453.369354,410.752960 
	C448.069031,401.984436 445.396912,392.059814 445.413330,382.253204 
	C445.438507,367.217834 448.683136,353.001526 460.004913,341.165344 
	C476.285065,324.145447 496.386719,318.140015 518.703125,319.247650 
	C539.855835,320.297546 558.710022,327.987793 571.769897,345.756531 
	C585.739563,364.763062 585.783569,394.518127 571.263184,413.638824 
	C566.393005,420.051971 558.933533,424.544220 552.438599,429.635071 
	C551.309875,430.519775 549.086487,430.007904 547.023438,429.983307 
	C547.009949,428.747681 547.341736,427.669800 548.154663,426.432495 
	C550.477417,425.813049 552.686279,425.845764 554.090637,424.799103 
	C558.059204,421.841400 561.885498,418.633911 565.433777,415.181580 
	C580.486023,400.536377 581.722717,368.846375 572.214233,352.589996 
	C571.189575,350.838104 569.422607,349.520355 567.866943,347.743500 
	C567.156738,346.989716 566.579590,346.493622 565.991821,345.633728 
	C563.102661,338.072021 556.430237,334.754364 550.406982,331.396881 
	C533.748962,322.111328 515.711365,321.264801 497.248352,324.403687 
	C482.580688,326.897278 470.339813,333.788025 460.658539,344.933990 
	C450.550964,356.570831 446.825745,370.281921 448.661713,385.579193 
	C450.211243,398.489685 454.252808,410.272644 464.533691,418.866669 
	C468.392487,422.092316 472.124329,426.604767 478.526733,425.112091 
	C479.305023,427.185913 479.885101,428.971619 480.465179,430.757294 
z"/>
  <path fill="#6E6660" opacity="1.000000" stroke="none" d="
M566.002441,345.997559 
	C566.579590,346.493622 567.156738,346.989716 567.877686,348.118073 
	C569.321411,351.577698 570.841797,354.326263 571.884583,357.245453 
	C577.528564,373.044434 577.422424,388.789276 569.906128,403.898895 
	C565.484619,412.787140 558.818665,419.862915 548.897766,423.033600 
	C548.897766,423.033600 548.481201,422.961090 548.423645,422.605591 
	C549.025879,420.846466 549.685730,419.442871 550.684448,418.016846 
	C554.597778,415.138245 558.781128,412.786469 561.638977,409.336639 
	C572.719116,395.961273 573.543152,380.254242 570.450378,364.077545 
	C567.615112,349.247345 556.539490,341.595703 543.954468,335.927917 
	C529.609131,329.467377 514.452515,328.493195 499.079102,331.232819 
	C488.122650,333.185272 477.877777,337.332458 469.320496,344.413269 
	C460.356323,351.830719 455.171570,361.265808 454.413483,373.548645 
	C453.408081,389.838287 457.340118,403.749908 469.560181,414.811035 
	C470.739136,415.878204 473.216736,415.510681 475.328857,416.121033 
	C476.010223,418.211182 476.454285,419.989441 476.454590,421.804352 
	C474.528687,421.262177 472.946167,420.858704 471.580170,420.076935 
	C460.048187,413.476898 454.820251,402.830627 451.982239,390.344971 
	C447.471802,370.501770 455.692963,348.733887 472.416229,337.355774 
	C494.294983,322.470001 535.070435,320.846558 556.938599,339.267120 
	C559.811340,341.686951 562.974060,343.762543 566.002441,345.997559 
z"/>
  <path fill="#303C4F" opacity="1.000000" stroke="none" d="
M489.261963,459.487518 
	C487.347198,460.533569 485.330566,461.960632 483.484344,461.766510 
	C464.975311,459.820465 450.250977,450.715851 438.390747,436.800751 
	C425.591125,421.783508 419.678009,403.989197 419.181763,384.500153 
	C419.050659,379.350677 421.057281,374.121002 422.327667,368.988861 
	C422.523041,368.199493 424.047333,367.739044 425.427551,367.492584 
	C425.984772,369.780823 426.071503,371.702942 426.121643,374.104309 
	C426.100159,387.088806 427.517975,399.419678 432.228821,411.069366 
	C441.559937,434.144897 458.406677,448.479156 482.950073,453.417084 
	C484.279297,453.684509 485.781555,453.091766 487.203278,452.899414 
	C487.881897,454.971649 488.560547,457.043915 489.261963,459.487518 
z"/>
  <path fill="#24344B" opacity="1.000000" stroke="none" d="
M510.079620,495.864899 
	C512.726501,495.867920 514.886536,495.865295 517.046631,495.869110 
	C525.160156,495.883453 525.189270,495.875366 527.552979,503.594788 
	C528.134277,505.493164 528.570923,507.452881 528.875732,509.415192 
	C529.456665,513.155945 529.894958,516.918823 530.463623,521.208862 
	C518.856628,521.208862 507.674927,521.208862 495.203278,521.208862 
	C496.976227,513.486511 498.382080,505.904694 500.527832,498.538422 
	C501.918854,493.762939 506.469452,496.520172 510.079620,495.864899 
z"/>
  <path fill="#3E4654" opacity="1.000000" stroke="none" d="
M487.186218,452.516876 
	C485.781555,453.091766 484.279297,453.684509 482.950073,453.417084 
	C458.406677,448.479156 441.559937,434.144897 432.228821,411.069366 
	C427.517975,399.419678 426.100159,387.088806 426.357117,373.862762 
	C430.208557,364.008057 433.787872,354.874115 437.367188,345.740173 
	C437.459991,347.369354 437.899811,349.068481 437.588043,350.616180 
	C435.825073,359.368713 432.347778,368.081329 432.327271,376.814301 
	C432.287506,393.739410 435.653625,410.305756 446.263092,424.271271 
	C452.914337,433.026428 461.287750,439.848389 472.109528,442.973206 
	C475.842926,444.051178 479.725159,444.613647 483.800018,445.149170 
	C485.096802,447.302551 486.132965,449.718445 487.186218,452.516876 
z"/>
  <path fill="#3E4654" opacity="1.000000" stroke="none" d="
M494.473328,462.057526 
	C493.707947,458.974274 492.942566,455.890991 492.545197,452.475739 
	C494.035004,452.393280 495.162354,452.881104 496.277710,452.855072 
	C506.279449,452.621582 516.292908,452.510834 526.270569,451.864319 
	C529.089050,451.681732 531.800903,449.854095 534.561707,448.780945 
	C533.644226,453.201691 532.726746,457.622437 531.307312,462.580627 
	C528.824219,464.428040 526.843018,465.737976 524.861816,467.047913 
	C516.926636,467.042450 508.991455,467.036987 500.376434,466.864807 
	C497.955505,465.151215 496.214417,463.604370 494.473328,462.057526 
z"/>
  <path fill="#7B6F63" opacity="1.000000" stroke="none" d="
M486.428802,429.112701 
	C486.428802,429.112701 486.185760,429.108185 486.078430,428.714966 
	C485.924408,427.578613 485.877655,426.835419 485.981934,425.950562 
	C485.906464,425.562531 485.679993,425.316193 485.299164,424.764526 
	C484.484589,421.991760 483.824402,419.524384 483.557495,417.034546 
	C485.861877,417.450226 487.877960,417.633026 489.666962,418.368225 
	C500.700775,422.902771 511.966309,424.506683 523.700989,421.597504 
	C530.097595,420.011688 536.523010,418.542389 542.921997,417.394104 
	C542.525513,419.458160 542.142395,421.148621 541.759277,422.839081 
	C541.455383,423.756195 541.151428,424.673279 540.247192,425.826477 
	C528.848755,427.375244 518.078979,429.091309 507.242035,429.854492 
	C500.355865,430.339417 493.369965,429.408630 486.428802,429.112701 
z"/>
  <path fill="#58575A" opacity="1.000000" stroke="none" d="
M538.604187,432.915649 
	C538.003723,435.341705 537.403259,437.767761 536.240479,440.679596 
	C530.109985,442.445129 524.591492,444.458252 518.962341,444.839966 
	C509.520935,445.480286 500.009033,445.081512 490.526794,445.119965 
	C489.778595,442.332886 489.030396,439.545807 488.681366,436.388184 
	C498.699585,436.346436 508.347778,437.272095 517.927917,436.804199 
	C524.866760,436.465332 531.715332,434.278473 538.604187,432.915649 
z"/>
  <path fill="#6E6660" opacity="1.000000" stroke="none" d="
M538.756348,432.620056 
	C531.715332,434.278473 524.866760,436.465332 517.927917,436.804199 
	C508.347778,437.272095 498.699585,436.346436 488.646545,436.028198 
	C488.088928,435.607788 487.965302,435.176849 487.992920,434.269714 
	C487.927460,433.552155 487.710754,433.310791 487.494049,433.069427 
	C487.183167,431.976532 486.872284,430.883667 486.495117,429.451721 
	C493.369965,429.408630 500.355865,430.339417 507.242035,429.854492 
	C518.078979,429.091309 528.848755,427.375244 540.097900,426.087158 
	C540.002136,428.182617 539.455322,430.253510 538.756348,432.620056 
z"/>
  <path fill="#494E57" opacity="1.000000" stroke="none" d="
M490.571198,445.460999 
	C500.009033,445.081512 509.520935,445.480286 518.962341,444.839966 
	C524.591492,444.458252 530.109985,442.445129 536.031860,440.968018 
	C535.874329,443.237915 535.363037,445.705170 534.706726,448.476685 
	C531.800903,449.854095 529.089050,451.681732 526.270569,451.864319 
	C516.292908,452.510834 506.279449,452.621582 496.277710,452.855072 
	C495.162354,452.881104 494.035004,452.393280 492.542297,452.080261 
	C492.044098,451.589081 491.916840,451.161438 491.946167,450.265747 
	C491.889191,449.566956 491.675629,449.336151 491.462036,449.105347 
	C491.179901,448.004242 490.897736,446.903168 490.571198,445.460999 
z"/>
  <path fill="#67625F" opacity="1.000000" stroke="none" d="
M548.867798,423.346832 
	C558.818665,419.862915 565.484619,412.787140 569.906128,403.898895 
	C577.422424,388.789276 577.528564,373.044434 571.884583,357.245453 
	C570.841797,354.326263 569.321411,351.577698 568.010742,348.375793 
	C569.422607,349.520355 571.189575,350.838104 572.214233,352.589996 
	C581.722717,368.846375 580.486023,400.536377 565.433777,415.181580 
	C561.885498,418.633911 558.059204,421.841400 554.090637,424.799103 
	C552.686279,425.845764 550.477417,425.813049 548.331421,426.141663 
	C548.297302,425.226837 548.567627,424.443451 548.867798,423.346832 
z"/>
  <path fill="#EBBE6F" opacity="1.000000" stroke="none" d="
M483.164185,417.056976 
	C483.824402,419.524384 484.484589,421.991760 485.374451,425.027679 
	C485.679688,425.761566 485.755310,425.926910 485.830902,426.092255 
	C485.877655,426.835419 485.924408,427.578613 485.958801,428.693634 
	C484.534393,429.699341 483.122314,430.333221 481.362305,430.979828 
	C481.014374,430.992554 480.736847,430.880188 480.601013,430.818726 
	C479.885101,428.971619 479.305023,427.185913 478.475708,424.817993 
	C477.783722,423.413025 477.341034,422.590363 476.898315,421.767670 
	C476.454285,419.989441 476.010223,418.211182 475.260376,415.814331 
	C474.260345,414.150604 473.566101,413.105499 472.901855,411.774536 
	C472.924622,410.617096 472.917358,409.745544 473.253113,409.023315 
	C476.408997,409.445831 479.221924,409.719086 482.081116,410.395020 
	C482.473022,412.884125 482.818604,414.970551 483.164185,417.056976 
z"/>
  <path fill="#EBBE6F" opacity="1.000000" stroke="none" d="
M542.066223,423.001404 
	C542.142395,421.148621 542.525513,419.458160 543.087769,417.055847 
	C543.825317,414.457672 544.383789,412.571381 545.380798,410.783203 
	C547.855591,410.766357 549.891785,410.651367 551.966797,410.954376 
	C551.936035,412.196411 551.866455,413.020447 551.558960,414.085632 
	C550.995850,415.564301 550.670654,416.801758 550.345520,418.039246 
	C549.685730,419.442871 549.025879,420.846466 548.220459,422.547180 
	C546.297485,425.149597 544.383728,425.020630 542.066223,423.001404 
z"/>
  <path fill="#24344B" opacity="1.000000" stroke="none" d="
M494.425842,462.468994 
	C496.214417,463.604370 497.955505,465.151215 499.926819,466.963684 
	C499.371918,472.263641 498.586761,477.298035 497.801605,482.332397 
	C497.307709,482.293579 496.813812,482.254730 496.319946,482.215881 
	C495.672760,475.770752 495.025574,469.325592 494.425842,462.468994 
z"/>
  <path fill="#20314A" opacity="1.000000" stroke="none" d="
M524.982788,467.422424 
	C526.843018,465.737976 528.824219,464.428040 531.094116,462.860657 
	C530.819580,469.063751 530.256409,475.524261 529.693237,481.984772 
	C529.260315,482.031067 528.827393,482.077362 528.394470,482.123688 
	C527.297546,477.348083 526.200684,472.572510 524.982788,467.422424 
z"/>
  <path fill="#22334A" opacity="1.000000" stroke="none" d="
M603.349731,435.053650 
	C603.521118,434.225677 603.952454,433.207916 604.737732,432.120361 
	C604.597656,432.988342 604.103638,433.926147 603.349731,435.053650 
z"/>
  <path fill="#22334A" opacity="1.000000" stroke="none" d="
M608.400757,426.331757 
	C608.369568,425.870392 608.609558,425.166290 609.184326,424.274750 
	C609.236816,424.754547 608.954346,425.421783 608.400757,426.331757 
z"/>
  <path fill="#22334A" opacity="1.000000" stroke="none" d="
M605.305176,431.915649 
	C605.287048,431.527252 605.515015,430.958466 606.018799,430.236145 
	C606.046875,430.633514 605.799072,431.184418 605.305176,431.915649 
z"/>
  <path fill="#22334A" opacity="1.000000" stroke="none" d="
M610.377686,422.258484 
	C610.305420,421.829010 610.480896,421.159180 610.936707,420.275299 
	C611.019836,420.713562 610.822632,421.365845 610.377686,422.258484 
z"/>
  <path fill="#3E4654" opacity="1.000000" stroke="none" d="
M491.497986,449.363342 
	C491.675629,449.336151 491.889191,449.566956 491.957336,449.929810 
	C491.719208,449.915009 491.626556,449.768158 491.497986,449.363342 
z"/>
  <path fill="#494E57" opacity="1.000000" stroke="none" d="
M482.037903,435.702881 
	C481.830811,435.766296 481.558105,435.562683 481.156311,435.135437 
	C481.342255,435.086456 481.657288,435.261139 482.037903,435.702881 
z"/>
  <path fill="#58575A" opacity="1.000000" stroke="none" d="
M487.556152,433.330505 
	C487.710754,433.310791 487.927460,433.552155 488.002197,433.932129 
	C487.779541,433.911011 487.698914,433.751282 487.556152,433.330505 
z"/>
  <path fill="#20314A" opacity="1.000000" stroke="none" d="
M691.908875,685.359558 
	C695.696167,685.475281 699.015564,685.585815 702.335083,685.693542 
	C707.215881,685.852051 709.978149,688.518982 710.005859,693.276001 
	C710.057129,702.077209 709.996277,710.879089 710.054443,719.680176 
	C710.084656,724.260803 707.319519,726.306641 703.335754,726.497681 
	C697.061890,726.798401 690.763062,726.577515 684.178345,726.577515 
	C684.178345,712.598145 684.178345,699.223267 684.178345,685.353149 
	C686.585754,685.353149 689.013367,685.353149 691.908875,685.359558 
z"/>
  <path fill="#20314A" opacity="1.000000" stroke="none" d="
M613.426758,685.777832 
	C614.338318,687.925232 616.026917,690.066467 616.043823,692.220886 
	C616.262207,720.028625 616.215942,747.838318 616.310059,775.647278 
	C616.325134,780.092468 613.914368,781.966370 609.923035,782.079468 
	C604.599121,782.230408 599.266785,782.084045 593.374451,781.659424 
	C591.829773,777.718506 590.033386,774.191833 589.997009,770.647095 
	C589.712463,742.925903 589.765808,715.201111 589.714783,687.477478 
	C590.003113,687.073547 590.291382,686.669617 591.261169,686.108398 
	C599.104065,685.893311 606.265381,685.835571 613.426758,685.777832 
z"/>
  <path fill="#3C4C62" opacity="1.000000" stroke="none" d="
M589.377563,687.709106 
	C589.765808,715.201111 589.712463,742.925903 589.997009,770.647095 
	C590.033386,774.191833 591.829773,777.718506 592.909180,781.605957 
	C591.385498,779.634949 588.378967,777.326721 588.353333,774.985840 
	C588.060608,748.249390 588.203491,721.507935 588.295654,694.768005 
	C588.303528,692.491394 588.781006,690.216431 589.377563,687.709106 
z"/>
  <path fill="#3C4C62" opacity="1.000000" stroke="none" d="
M613.218506,685.434326 
	C606.265381,685.835571 599.104065,685.893311 591.474976,685.977051 
	C591.940063,685.469604 592.879089,684.466064 593.804504,684.478394 
	C600.208069,684.564209 606.608704,684.861450 613.218506,685.434326 
z"/>
  <path fill="#F4F4F4" opacity="1.000000" stroke="none" d="
M437.481750,345.397949 
	C433.787872,354.874115 430.208557,364.008057 426.393738,373.383545 
	C426.071503,371.702942 425.984772,369.780823 425.834839,367.494995 
	C425.855560,366.599213 425.939514,366.067108 426.070038,364.861542 
	C426.275269,362.506104 426.433960,360.824188 426.592651,359.142242 
	C430.301208,335.804108 440.861725,316.618530 461.150940,303.751801 
	C477.843475,293.165955 496.318268,289.145477 516.347290,290.643494 
	C499.441254,293.360016 483.778778,300.023163 468.962097,309.617798 
	C468.341217,310.211334 467.894714,310.495514 466.945007,310.924561 
	C466.225800,311.355804 466.009796,311.642120 465.793793,311.928467 
	C459.088257,318.665344 452.382721,325.402222 445.529114,332.461670 
	C442.786133,336.874725 440.191223,340.965210 437.481750,345.397949 
z"/>
  <path fill="#303C4F" opacity="1.000000" stroke="none" d="
M426.201660,359.149719 
	C426.433960,360.824188 426.275269,362.506104 426.004028,364.597626 
	C422.061432,363.417877 422.044464,362.190521 426.201660,359.149719 
z"/>
  <path fill="#343F50" opacity="1.000000" stroke="none" d="
M466.029846,311.839233 
	C466.009796,311.642120 466.225800,311.355804 466.716492,311.067932 
	C466.749451,311.294250 466.507690,311.522125 466.029846,311.839233 
z"/>
  <path fill="#67625F" opacity="1.000000" stroke="none" d="
M476.454590,421.804352 
	C477.341034,422.590363 477.783722,423.413025 478.277466,424.529846 
	C472.124329,426.604767 468.392487,422.092316 464.533691,418.866669 
	C454.252808,410.272644 450.211243,398.489685 448.661713,385.579193 
	C446.825745,370.281921 450.550964,356.570831 460.658539,344.933990 
	C470.339813,333.788025 482.580688,326.897278 497.248352,324.403687 
	C515.711365,321.264801 533.748962,322.111328 550.406982,331.396881 
	C556.430237,334.754364 563.102661,338.072021 565.991821,345.633728 
	C562.974060,343.762543 559.811340,341.686951 556.938599,339.267120 
	C535.070435,320.846558 494.294983,322.470001 472.416229,337.355774 
	C455.692963,348.733887 447.471802,370.501770 451.982239,390.344971 
	C454.820251,402.830627 460.048187,413.476898 471.580170,420.076935 
	C472.946167,420.858704 474.528687,421.262177 476.454590,421.804352 
z"/>
  <path fill="#7B6F63" opacity="1.000000" stroke="none" d="
M550.684448,418.016846 
	C550.670654,416.801758 550.995850,415.564301 551.922058,414.088318 
	C554.853455,411.181885 557.731689,408.818970 559.416870,405.791870 
	C565.862427,394.213379 567.641663,381.576965 566.986145,368.481201 
	C566.456299,357.895966 561.861572,351.079102 552.917480,347.655823 
	C550.265320,345.908234 547.769531,344.345001 545.114258,343.130402 
	C541.089600,341.289398 537.017578,338.435120 532.853760,338.224579 
	C520.318909,337.590759 507.577423,336.858887 495.217926,338.473145 
	C487.523529,339.478088 480.374939,344.662079 472.593933,347.976807 
	C465.281555,349.112305 461.789124,353.768433 460.639465,363.061890 
	C460.208252,364.431335 460.098053,365.715118 459.988556,367.425781 
	C459.978210,369.560364 459.967194,371.268036 459.591431,373.100403 
	C459.449829,379.737671 459.025360,386.364410 460.145203,392.718964 
	C460.790985,396.383270 463.932007,399.607849 466.104767,403.355286 
	C467.254578,407.427643 468.683563,410.832611 472.871857,412.060425 
	C473.566101,413.105499 474.260345,414.150604 475.023071,415.502380 
	C473.216736,415.510681 470.739136,415.878204 469.560181,414.811035 
	C457.340118,403.749908 453.408081,389.838287 454.413483,373.548645 
	C455.171570,361.265808 460.356323,351.830719 469.320496,344.413269 
	C477.877777,337.332458 488.122650,333.185272 499.079102,331.232819 
	C514.452515,328.493195 529.609131,329.467377 543.954468,335.927917 
	C556.539490,341.595703 567.615112,349.247345 570.450378,364.077545 
	C573.543152,380.254242 572.719116,395.961273 561.638977,409.336639 
	C558.781128,412.786469 554.597778,415.138245 550.684448,418.016846 
z"/>
  <path fill="#9C8369" opacity="1.000000" stroke="none" d="
M544.942261,410.685089 
	C544.383789,412.571381 543.825317,414.457672 543.101135,416.682251 
	C536.523010,418.542389 530.097595,420.011688 523.700989,421.597504 
	C511.966309,424.506683 500.700775,422.902771 489.666962,418.368225 
	C487.877960,417.633026 485.861877,417.450226 483.557495,417.034546 
	C482.818604,414.970551 482.473022,412.884125 482.074402,410.409119 
	C482.021393,410.020569 481.994568,410.034302 482.348877,409.991364 
	C485.488281,407.764465 487.677856,408.029755 490.419189,410.610565 
	C493.506073,413.516754 497.370300,414.910553 501.884613,412.786499 
	C503.155060,412.188721 505.512817,412.647369 506.773987,413.502838 
	C512.075073,417.098633 514.718506,417.012482 519.558289,413.223511 
	C520.737366,412.300446 523.395874,411.858673 524.546936,412.557739 
	C528.985718,415.253387 532.648865,414.207733 535.665955,410.724182 
	C538.208801,407.788208 540.669861,406.822113 544.161865,409.271118 
	C544.525330,409.862732 544.733826,410.273895 544.942261,410.685089 
z"/>
  <path fill="#6E6660" opacity="1.000000" stroke="none" d="
M485.981934,425.950562 
	C485.755310,425.926910 485.679688,425.761566 485.528809,425.333038 
	C485.679993,425.316193 485.906464,425.562531 485.981934,425.950562 
z"/>
  <path fill="#FDFBF6" opacity="1.000000" stroke="none" d="
M545.380859,410.783203 
	C544.733826,410.273895 544.525330,409.862732 544.150330,408.853455 
	C543.216125,403.870636 542.448425,399.485901 541.767883,395.598999 
	C539.277039,399.808502 537.094604,404.711945 533.813354,408.714691 
	C530.232605,413.082825 525.833374,411.767609 524.099304,406.460724 
	C523.715210,405.285431 523.293213,404.122498 522.712708,402.445374 
	C520.740967,407.516388 519.789856,412.962158 514.028564,413.769043 
	C507.490723,414.684662 506.508698,408.578033 504.188904,404.228058 
	C499.748108,411.732422 496.826569,412.959320 492.533356,408.960327 
	C490.644501,407.200836 489.305023,404.763123 488.027069,402.460754 
	C486.712830,400.093109 485.777557,397.515106 484.478180,394.581482 
	C483.574005,400.207153 482.784271,405.120728 481.994568,410.034302 
	C481.994568,410.034302 482.021393,410.020569 482.028107,410.006439 
	C479.221924,409.719086 476.408997,409.445831 473.240845,408.823120 
	C472.782990,408.204559 472.598969,408.014038 472.284302,407.513855 
	C470.962708,403.000183 469.459625,398.929565 468.461639,394.738708 
	C465.582367,382.647430 464.361206,370.409851 467.522125,358.221375 
	C468.108398,355.960693 470.943481,352.716797 472.726105,352.726074 
	C474.995270,352.737885 477.656860,355.261017 479.386322,357.337067 
	C480.869476,359.117462 481.278839,361.792419 482.099670,363.908356 
	C484.166931,359.065521 485.746643,354.118256 488.292694,349.731812 
	C491.154144,344.802002 496.262177,345.164093 498.719696,350.353333 
	C500.757721,354.656769 502.051239,359.312775 503.525146,363.398376 
	C504.886627,359.612122 506.014313,355.219818 508.000458,351.257874 
	C510.730164,345.812744 516.319275,345.785889 519.136475,351.221863 
	C521.171448,355.148407 522.313843,359.537506 523.786011,363.534821 
	C524.829529,359.982422 525.505371,355.798309 527.317078,352.183502 
	C528.502625,349.818054 531.254456,346.892761 533.450256,346.767365 
	C535.528076,346.648712 538.602539,349.430328 539.799866,351.696503 
	C541.829163,355.537415 542.726318,359.976501 544.248108,364.617737 
	C547.047241,358.825439 548.011414,351.359863 557.064575,353.428589 
	C557.333130,353.782379 557.535217,353.928986 557.858154,354.415070 
	C558.915100,360.327728 560.611267,365.839447 560.712219,371.380249 
	C560.950317,384.441132 558.474792,397.109283 552.827393,409.232666 
	C552.407043,409.765564 552.167542,410.150940 551.928040,410.536346 
	C549.891785,410.651367 547.855591,410.766357 545.380859,410.783203 
M529.607727,366.706665 
	C527.548767,379.087311 526.568848,391.450867 530.260193,403.945892 
	C532.262085,401.373779 533.670288,398.659698 534.922424,395.875427 
	C539.728516,385.188202 539.668945,374.172791 537.075989,362.209686 
	C536.133606,359.393433 535.191284,356.577179 534.248901,353.760925 
	C533.622803,353.791107 532.996704,353.821259 532.370544,353.851440 
	C531.590088,357.902893 530.809570,361.954376 529.607727,366.706665 
M487.449646,370.734894 
	C485.404114,383.003571 490.191284,393.477386 496.294403,403.881378 
	C498.171204,396.525818 499.594635,389.198914 499.309540,381.939117 
	C499.008209,374.266022 497.079254,366.656830 495.859924,358.304230 
	C495.226685,356.607880 494.593414,354.911560 493.960175,353.215210 
	C493.254242,353.193542 492.548309,353.171875 491.842346,353.150208 
	C490.499054,358.764557 489.155762,364.378906 487.449646,370.734894 
M507.613831,389.788025 
	C508.891541,395.842316 510.169220,401.896637 511.550110,408.439941 
	C521.059021,401.545044 521.666077,366.555359 512.760132,354.350647 
	C508.939453,366.119781 506.737915,377.259430 507.613831,389.788025 
M554.232788,368.285828 
	C553.950806,365.769379 553.668884,363.252960 553.288208,359.855408 
	C546.447144,370.766479 544.882141,391.729462 549.607727,401.830353 
	C553.591614,392.259949 555.564331,378.628326 554.232788,368.285828 
M471.930725,379.323914 
	C473.347656,386.843811 474.764557,394.363678 476.181488,401.883575 
	C476.617065,401.789032 477.052673,401.694458 477.488251,401.599915 
	C480.297668,380.834106 479.029053,366.745850 472.804657,358.557190 
	C472.467773,365.924133 472.183258,372.145905 471.930725,379.323914 
z"/>
  <path fill="#A48668" opacity="1.000000" stroke="none" d="
M551.966797,410.954376 
	C552.167542,410.150940 552.407043,409.765564 553.179810,409.178375 
	C555.184021,406.858276 557.167358,404.931061 558.040466,402.589813 
	C562.750122,389.960297 563.975098,376.778290 562.640930,363.483002 
	C562.311584,360.201324 559.462891,357.172424 557.772339,354.027344 
	C557.535217,353.928986 557.333130,353.782379 557.031006,353.050110 
	C554.747253,349.019897 551.901978,349.862335 549.164185,351.471313 
	C546.544128,353.011108 544.757019,352.887085 542.984009,350.103363 
	C537.451538,341.417145 533.173401,340.876068 525.715332,347.915680 
	C523.714966,349.803833 522.458984,349.948395 520.366882,347.999878 
	C514.604858,342.633179 511.957367,342.501953 506.241547,347.368195 
	C503.827179,349.423645 502.368591,348.760132 500.314331,346.956055 
	C495.182983,342.449585 490.755402,342.726746 485.975128,347.602112 
	C484.817810,348.782410 484.011536,350.382080 482.705963,351.317230 
	C481.725189,352.019745 479.918121,352.589600 478.967224,352.153595 
	C470.335510,348.195587 466.257385,349.755341 464.308472,359.015656 
	C461.595032,371.909027 462.353760,384.837128 466.434906,397.370300 
	C467.656982,401.123169 470.326874,404.404633 472.333496,407.902039 
	C472.598969,408.014038 472.782990,408.204559 472.897858,408.673828 
	C472.917358,409.745544 472.924622,410.617096 472.901855,411.774536 
	C468.683563,410.832611 467.254578,407.427643 466.068115,402.986328 
	C461.771057,392.950745 459.955078,383.146729 459.956177,372.975739 
	C459.967194,371.268036 459.978210,369.560364 460.236298,367.170288 
	C460.642395,365.317352 460.801453,364.146820 460.960480,362.976257 
	C461.789124,353.768433 465.281555,349.112305 473.033203,347.990295 
	C478.627655,348.699097 482.554840,346.975555 486.360138,344.199219 
	C490.420258,341.236908 494.911560,339.744568 499.906067,342.351990 
	C500.882446,342.861694 502.173340,343.029175 503.294769,342.959869 
	C512.392517,342.397339 521.484375,341.316071 530.578308,341.312836 
	C534.445984,341.311462 539.121338,342.546600 541.978333,344.947052 
	C545.548340,347.946533 548.554993,349.662201 553.002441,347.996338 
	C561.861572,351.079102 566.456299,357.895966 566.986145,368.481201 
	C567.641663,381.576965 565.862427,394.213379 559.416870,405.791870 
	C557.731689,408.818970 554.853455,411.181885 552.160034,413.847137 
	C551.866455,413.020447 551.936035,412.196411 551.966797,410.954376 
z"/>
  <path fill="#8C7967" opacity="1.000000" stroke="none" d="
M552.917480,347.655823 
	C548.554993,349.662201 545.548340,347.946533 541.978333,344.947052 
	C539.121338,342.546600 534.445984,341.311462 530.578308,341.312836 
	C521.484375,341.316071 512.392517,342.397339 503.294769,342.959869 
	C502.173340,343.029175 500.882446,342.861694 499.906067,342.351990 
	C494.911560,339.744568 490.420258,341.236908 486.360138,344.199219 
	C482.554840,346.975555 478.627655,348.699097 473.420654,347.984070 
	C480.374939,344.662079 487.523529,339.478088 495.217926,338.473145 
	C507.577423,336.858887 520.318909,337.590759 532.853760,338.224579 
	C537.017578,338.435120 541.089600,341.289398 545.114258,343.130402 
	C547.769531,344.345001 550.265320,345.908234 552.917480,347.655823 
z"/>
  <path fill="#8C7967" opacity="1.000000" stroke="none" d="
M459.591431,373.100403 
	C459.955078,383.146729 461.771057,392.950745 465.913269,402.661377 
	C463.932007,399.607849 460.790985,396.383270 460.145203,392.718964 
	C459.025360,386.364410 459.449829,379.737671 459.591431,373.100403 
z"/>
  <path fill="#8C7967" opacity="1.000000" stroke="none" d="
M460.639465,363.061890 
	C460.801453,364.146820 460.642395,365.317352 460.235626,366.743408 
	C460.098053,365.715118 460.208252,364.431335 460.639465,363.061890 
z"/>
  <path fill="#EBBE6F" opacity="1.000000" stroke="none" d="
M482.348877,409.991364 
	C482.784271,405.120728 483.574005,400.207153 484.478180,394.581482 
	C485.777557,397.515106 486.712830,400.093109 488.027069,402.460754 
	C489.305023,404.763123 490.644501,407.200836 492.533356,408.960327 
	C496.826569,412.959320 499.748108,411.732422 504.188904,404.228058 
	C506.508698,408.578033 507.490723,414.684662 514.028564,413.769043 
	C519.789856,412.962158 520.740967,407.516388 522.712708,402.445374 
	C523.293213,404.122498 523.715210,405.285431 524.099304,406.460724 
	C525.833374,411.767609 530.232605,413.082825 533.813354,408.714691 
	C537.094604,404.711945 539.277039,399.808502 541.767883,395.598999 
	C542.448425,399.485901 543.216125,403.870636 543.995361,408.673035 
	C540.669861,406.822113 538.208801,407.788208 535.665955,410.724182 
	C532.648865,414.207733 528.985718,415.253387 524.546936,412.557739 
	C523.395874,411.858673 520.737366,412.300446 519.558289,413.223511 
	C514.718506,417.012482 512.075073,417.098633 506.773987,413.502838 
	C505.512817,412.647369 503.155060,412.188721 501.884613,412.786499 
	C497.370300,414.910553 493.506073,413.516754 490.419189,410.610565 
	C487.677856,408.029755 485.488281,407.764465 482.348877,409.991364 
z"/>
  <path fill="#DAAD79" opacity="1.000000" stroke="none" d="
M472.284302,407.513855 
	C470.326874,404.404633 467.656982,401.123169 466.434906,397.370300 
	C462.353760,384.837128 461.595032,371.909027 464.308472,359.015656 
	C466.257385,349.755341 470.335510,348.195587 478.967224,352.153595 
	C479.918121,352.589600 481.725189,352.019745 482.705963,351.317230 
	C484.011536,350.382080 484.817810,348.782410 485.975128,347.602112 
	C490.755402,342.726746 495.182983,342.449585 500.314331,346.956055 
	C502.368591,348.760132 503.827179,349.423645 506.241547,347.368195 
	C511.957367,342.501953 514.604858,342.633179 520.366882,347.999878 
	C522.458984,349.948395 523.714966,349.803833 525.715332,347.915680 
	C533.173401,340.876068 537.451538,341.417145 542.984009,350.103363 
	C544.757019,352.887085 546.544128,353.011108 549.164185,351.471313 
	C551.901978,349.862335 554.747253,349.019897 556.929504,352.891174 
	C548.011414,351.359863 547.047241,358.825439 544.248108,364.617737 
	C542.726318,359.976501 541.829163,355.537415 539.799866,351.696503 
	C538.602539,349.430328 535.528076,346.648712 533.450256,346.767365 
	C531.254456,346.892761 528.502625,349.818054 527.317078,352.183502 
	C525.505371,355.798309 524.829529,359.982422 523.786011,363.534821 
	C522.313843,359.537506 521.171448,355.148407 519.136475,351.221863 
	C516.319275,345.785889 510.730164,345.812744 508.000458,351.257874 
	C506.014313,355.219818 504.886627,359.612122 503.525146,363.398376 
	C502.051239,359.312775 500.757721,354.656769 498.719696,350.353333 
	C496.262177,345.164093 491.154144,344.802002 488.292694,349.731812 
	C485.746643,354.118256 484.166931,359.065521 482.099670,363.908356 
	C481.278839,361.792419 480.869476,359.117462 479.386322,357.337067 
	C477.656860,355.261017 474.995270,352.737885 472.726105,352.726074 
	C470.943481,352.716797 468.108398,355.960693 467.522125,358.221375 
	C464.361206,370.409851 465.582367,382.647430 468.461639,394.738708 
	C469.459625,398.929565 470.962708,403.000183 472.284302,407.513855 
z"/>
  <path fill="#DEB57F" opacity="1.000000" stroke="none" d="
M507.516541,389.356812 
	C506.737915,377.259430 508.939453,366.119781 512.760132,354.350647 
	C521.666077,366.555359 521.059021,401.545044 511.550110,408.439941 
	C510.169220,401.896637 508.891541,395.842316 507.516541,389.356812 
z"/>
  <path fill="#DAAD79" opacity="1.000000" stroke="none" d="
M495.861267,359.019745 
	C497.079254,366.656830 499.008209,374.266022 499.309540,381.939117 
	C499.594635,389.198914 498.171204,396.525818 496.294403,403.881378 
	C490.191284,393.477386 485.404114,383.003571 487.994507,370.300903 
	C489.710663,367.793182 490.770538,365.645264 492.087555,363.668671 
	C493.189392,362.015045 494.591919,360.561737 495.861267,359.019745 
z"/>
  <path fill="#DAAD79" opacity="1.000000" stroke="none" d="
M537.022278,363.000427 
	C539.668945,374.172791 539.728516,385.188202 534.922424,395.875427 
	C533.670288,398.659698 532.262085,401.373779 530.260193,403.945892 
	C526.568848,391.450867 527.548767,379.087311 530.178650,366.345337 
	C532.840454,364.989441 534.931396,363.994934 537.022278,363.000427 
z"/>
  <path fill="#DEB57F" opacity="1.000000" stroke="none" d="
M554.283936,368.724915 
	C555.564331,378.628326 553.591614,392.259949 549.607727,401.830353 
	C544.882141,391.729462 546.447144,370.766479 553.288208,359.855408 
	C553.668884,363.252960 553.950806,365.769379 554.283936,368.724915 
z"/>
  <path fill="#DEB57F" opacity="1.000000" stroke="none" d="
M471.914734,378.845795 
	C472.183258,372.145905 472.467773,365.924133 472.804657,358.557190 
	C479.029053,366.745850 480.297668,380.834106 477.488251,401.599915 
	C477.052673,401.694458 476.617065,401.789032 476.181488,401.883575 
	C474.764557,394.363678 473.347656,386.843811 471.914734,378.845795 
z"/>
  <path fill="#DAAD79" opacity="1.000000" stroke="none" d="
M557.858154,354.415070 
	C559.462891,357.172424 562.311584,360.201324 562.640930,363.483002 
	C563.975098,376.778290 562.750122,389.960297 558.040466,402.589813 
	C557.167358,404.931061 555.184021,406.858276 553.360657,409.030884 
	C558.474792,397.109283 560.950317,384.441132 560.712219,371.380249 
	C560.611267,365.839447 558.915100,360.327728 557.858154,354.415070 
z"/>
  <path fill="#DEB57F" opacity="1.000000" stroke="none" d="
M495.860596,358.661987 
	C494.591919,360.561737 493.189392,362.015045 492.087555,363.668671 
	C490.770538,365.645264 489.710663,367.793182 488.175903,369.930084 
	C489.155762,364.378906 490.499054,358.764557 491.842346,353.150208 
	C492.548309,353.171875 493.254242,353.193542 493.960175,353.215210 
	C494.593414,354.911560 495.226685,356.607880 495.860596,358.661987 
z"/>
  <path fill="#DEB57F" opacity="1.000000" stroke="none" d="
M537.049133,362.605042 
	C534.931396,363.994934 532.840454,364.989441 530.389343,365.994934 
	C530.809570,361.954376 531.590088,357.902893 532.370544,353.851440 
	C532.996704,353.821259 533.622803,353.791107 534.248901,353.760925 
	C535.191284,356.577179 536.133606,359.393433 537.049133,362.605042 
z"/>
</svg>
